<svg width="380" height="149" viewBox="0 0 380 149" fill="none" xmlns="http://www.w3.org/2000/svg">
<g clip-path="url(#clip0_410_633)">
<g filter="url(#filter0_d_410_633)">
<path d="M81.7181 127.41C81.7181 127.41 81.6978 127.278 81.6471 127.014C81.6066 126.751 81.5255 126.365 81.414 125.879C81.191 124.885 80.7552 123.465 80.066 121.7C79.3768 119.936 78.4139 117.857 77.2483 115.484C76.0827 113.111 74.7246 110.444 73.3867 107.432C72.0488 104.43 70.7312 101.073 69.819 97.3411C69.3629 95.4751 68.9981 93.528 68.8055 91.5099C68.6231 89.4918 68.5926 87.4027 68.7447 85.2933C69.0487 81.0645 70.1434 76.7646 71.9171 72.7182C73.6806 68.6617 76.0017 64.8182 78.6977 61.2891C81.3836 57.7599 84.3634 54.4742 87.475 51.4622L88.6507 50.3467C89.046 49.9613 89.5122 49.5759 89.9176 49.2311C90.7386 48.5618 91.5697 47.8925 92.3805 47.2333C94.0022 45.915 95.5833 44.6067 97.1037 43.2782C103.236 38.0251 108.526 32.6097 112.287 27.3869C114.151 24.7705 115.682 22.2453 116.726 19.852C117.78 17.4688 118.429 15.2682 118.712 13.4123C119.016 11.5565 119.006 10.0556 118.946 9.05161C118.915 8.54455 118.875 8.15918 118.834 7.89551C118.804 7.63184 118.783 7.5 118.783 7.5C118.783 7.5 118.814 7.63184 118.875 7.88537C118.935 8.1389 119.016 8.52426 119.098 9.03133C119.25 10.0353 119.432 11.5565 119.27 13.4732C119.118 15.3899 118.672 17.7224 117.729 20.2475C116.797 22.7727 115.439 25.5108 113.635 28.2895C111.841 31.0682 109.672 33.928 107.158 36.7574C104.644 39.5868 101.837 42.4061 98.8064 45.1848C97.2861 46.564 95.705 47.9331 94.1036 49.3021C93.3029 49.9816 92.5022 50.6611 91.7015 51.3405C91.296 51.6853 90.9514 51.9896 90.5967 52.3546L89.4818 53.4702C86.5121 56.472 83.6336 59.6462 81.0897 63.0638C78.5659 66.4814 76.2855 70.0815 74.6131 73.8743C72.9509 77.657 71.8563 81.602 71.4508 85.5063C71.0657 89.4107 71.3698 93.2339 72.0894 96.8036C72.809 100.373 73.9239 103.679 75.0489 106.712C76.1942 109.734 77.3699 112.482 78.3429 114.956C79.3362 117.421 80.1166 119.621 80.6437 121.467C81.1809 123.313 81.4343 124.804 81.5559 125.818C81.6167 126.325 81.6471 126.72 81.6674 126.984C81.6876 127.248 81.6978 127.379 81.6978 127.379L81.7181 127.41Z" fill="#8F7242"/>
<path d="M116.878 91.7938C116.878 91.7938 117.05 91.9257 117.364 92.1589C117.689 92.3922 118.125 92.7877 118.662 93.3252C119.199 93.8525 119.797 94.5421 120.466 95.3433C121.135 96.1546 121.794 97.118 122.523 98.1727C123.202 99.2578 123.952 100.424 124.652 101.712C125.341 103 126.071 104.359 126.719 105.819C127.368 107.279 128.037 108.791 128.595 110.373L128.706 110.667L128.817 111.001C128.878 111.204 128.949 111.387 129.01 111.61C129.132 112.056 129.263 112.512 129.355 112.938C129.557 113.8 129.699 114.652 129.831 115.504C130.095 117.208 130.236 118.911 130.368 120.575C130.49 122.238 130.571 123.881 130.591 125.463C130.611 127.045 130.642 128.576 130.611 130.026C130.581 131.476 130.541 132.846 130.49 134.103C130.368 136.628 130.206 138.727 130.064 140.198C129.912 141.668 129.801 142.5 129.801 142.5C129.801 142.5 129.709 141.658 129.568 140.198C129.436 138.738 129.233 136.648 129 134.133C128.888 132.886 128.767 131.527 128.635 130.097C128.503 128.667 128.351 127.166 128.209 125.605C128.037 124.053 127.855 122.461 127.672 120.828C127.48 119.216 127.226 117.583 126.932 115.981C126.78 115.179 126.628 114.388 126.426 113.628C126.334 113.232 126.233 112.888 126.132 112.533C126.081 112.36 126 112.147 125.939 111.955L125.858 111.701L125.746 111.417C125.179 109.906 124.621 108.405 124.013 106.975C123.415 105.545 122.878 104.146 122.3 102.848C121.743 101.54 121.216 100.302 120.689 99.1766C119.685 96.905 118.753 95.0492 118.054 93.7714C117.699 93.1426 117.415 92.6355 117.192 92.311C116.979 91.9764 116.868 91.7938 116.868 91.7938H116.878Z" fill="#8F7242"/>
<path d="M173.353 16.2316C173.19 17.9961 172.998 19.7607 172.704 21.5151C172.4 23.2696 172.055 25.0139 171.63 26.748C170.768 30.2062 169.694 33.6136 168.386 36.94C167.089 40.2663 165.619 43.5216 164.028 46.706L161.646 51.452C161.261 52.2329 160.876 53.0239 160.521 53.8048C160.176 54.5857 159.842 55.3666 159.66 56.0663L159.7 55.7621C159.7 57.1818 159.71 58.6016 159.761 60.0214C159.812 61.4412 159.903 62.8508 159.994 64.2604C160.176 67.0797 160.511 69.8888 161.008 72.6573C161.271 74.0366 161.525 75.4158 161.879 76.7341C162.052 77.3832 162.254 78.0829 162.457 78.5697L163.308 80.5777C163.846 81.9264 164.403 83.3361 164.849 84.7153C165.325 86.0945 165.731 87.494 166.146 88.8935C166.521 90.3031 166.927 91.7026 167.251 93.1122C167.616 94.5218 167.879 95.9517 168.173 97.3715C168.437 98.8014 168.711 100.221 168.923 101.661C169.156 103.091 169.329 104.531 169.491 105.971C169.653 107.411 169.775 108.862 169.876 110.302C169.957 111.752 170.018 113.202 170.028 114.642C170.048 115.362 170.028 116.092 170.018 116.812C169.998 117.532 169.998 118.262 169.937 118.982C169.876 120.433 169.694 121.863 169.521 123.292L169.461 121.132C169.44 120.412 169.369 119.692 169.339 118.982C169.248 117.553 169.106 116.123 168.944 114.703C168.792 113.283 168.589 111.863 168.366 110.454C168.153 109.044 167.92 107.634 167.656 106.235C167.403 104.835 167.099 103.436 166.805 102.047C166.521 100.647 166.177 99.2679 165.832 97.8887C165.477 96.5095 165.102 95.1303 164.717 93.7714C164.352 92.3922 163.916 91.0434 163.501 89.6845C163.045 88.3357 162.609 86.9869 162.102 85.6685C161.626 84.3198 161.119 83.0622 160.572 81.7439L159.72 79.7866C159.366 78.955 159.163 78.2654 158.96 77.5251C158.565 76.0749 158.251 74.6349 158.008 73.1746C157.531 70.2742 157.217 67.3535 157.065 64.443C156.923 61.5223 156.943 58.6016 157.065 55.6911V55.5085L157.105 55.3868C157.41 54.3829 157.795 53.5513 158.2 52.7197C158.605 51.8983 159.031 51.1174 159.467 50.3264L162.041 45.6817C163.724 42.5886 165.366 39.4854 166.815 36.2909C168.265 33.0964 169.592 29.8411 170.667 26.4843C171.771 23.1377 172.653 19.7201 173.332 16.2417L173.353 16.2316Z" fill="#8F7242"/>
<path d="M150.903 87.3723C150.903 87.3723 150.771 87.8692 150.436 88.7008C150.092 89.5223 149.534 90.6885 148.713 91.9764C148.298 92.6153 147.852 93.3252 147.315 94.0148C146.788 94.7146 146.21 95.4447 145.561 96.1445C144.943 96.8747 144.234 97.5643 143.504 98.264C142.784 98.9739 141.994 99.6128 141.223 100.282C140.412 100.901 139.602 101.519 138.781 102.097C137.95 102.655 137.108 103.172 136.297 103.669C135.456 104.126 134.645 104.562 133.865 104.957C133.095 105.353 132.304 105.637 131.605 105.931C130.216 106.539 128.97 106.854 128.118 107.097C127.257 107.33 126.76 107.432 126.76 107.432C126.76 107.432 127.155 107.087 127.855 106.549C128.209 106.286 128.635 105.951 129.132 105.606C129.628 105.261 130.166 104.825 130.764 104.399C131.351 103.943 132.02 103.507 132.689 102.99C133.358 102.473 134.068 101.945 134.818 101.418C135.537 100.85 136.277 100.272 137.047 99.7041C137.798 99.1057 138.558 98.5074 139.318 97.9091C140.068 97.2904 140.808 96.6718 141.548 96.0634C142.267 95.4346 142.997 94.8464 143.666 94.2278C144.355 93.6295 145.004 93.0413 145.622 92.4734C146.24 91.9055 146.828 91.3578 147.365 90.8609C148.43 89.8367 149.311 88.9645 149.94 88.3459C150.558 87.707 150.913 87.3521 150.913 87.3521L150.903 87.3723Z" fill="#8F7242"/>
<path d="M157.035 19.9331C157.035 19.9331 157.136 20.6024 157.247 21.7788C157.288 22.367 157.41 23.0667 157.379 23.8983C157.359 24.7299 157.328 25.673 157.247 26.7176C157.136 27.7418 156.933 28.8371 156.71 30.0033C156.406 31.1392 156.092 32.3662 155.656 33.5731C155.17 34.7697 154.703 36.0374 154.045 37.2138C153.457 38.4408 152.717 39.5969 151.997 40.753C151.237 41.8787 150.467 43.0145 149.646 44.0489C148.845 45.1138 148.014 46.1076 147.213 47.0609C146.413 48.004 145.632 48.9167 144.892 49.7787C144.163 50.6407 143.494 51.4622 142.885 52.2228C142.561 52.598 142.318 52.9834 142.054 53.3383C141.791 53.7034 141.548 54.038 141.304 54.3626C140.919 55.042 140.524 55.6302 140.25 56.1373C139.784 57.1717 139.47 57.8004 139.47 57.8004C139.47 57.8004 139.521 57.1413 139.683 55.9446C139.804 55.3564 140.017 54.6668 140.271 53.8555C140.595 53.0949 140.919 52.1822 141.416 51.2898C141.659 50.8334 141.912 50.3669 142.176 49.8801C142.45 49.4035 142.764 48.937 143.068 48.4401C143.686 47.4463 144.365 46.4524 145.075 45.418C145.784 44.4039 146.524 43.3593 147.264 42.2945C148.014 41.2398 148.734 40.1649 149.453 39.0797C150.142 37.9946 150.852 36.9095 151.45 35.8041C152.119 34.719 152.616 33.5933 153.173 32.5285C153.67 31.4434 154.126 30.3684 154.541 29.3442C154.866 28.2895 155.251 27.3058 155.535 26.3829C155.758 25.4499 156.001 24.5879 156.214 23.8172C156.416 23.0363 156.508 22.3163 156.629 21.7484C156.852 20.5923 157.024 19.9331 157.024 19.9331H157.035Z" fill="#8F7242"/>
</g>
<g filter="url(#filter1_d_410_633)">
<path d="M81.7181 126.41C81.7181 126.41 81.6978 126.278 81.6471 126.014C81.6066 125.751 81.5255 125.365 81.414 124.879C81.191 123.885 80.7552 122.465 80.066 120.7C79.3768 118.936 78.4139 116.857 77.2483 114.484C76.0827 112.111 74.7246 109.444 73.3867 106.432C72.0488 103.43 70.7312 100.073 69.819 96.3411C69.3629 94.4751 68.9981 92.528 68.8055 90.5099C68.6231 88.4918 68.5926 86.4027 68.7447 84.2933C69.0487 80.0645 70.1434 75.7646 71.9171 71.7182C73.6806 67.6617 76.0017 63.8182 78.6977 60.2891C81.3836 56.7599 84.3634 53.4742 87.475 50.4622L88.6507 49.3467C89.046 48.9613 89.5122 48.5759 89.9176 48.2311C90.7386 47.5618 91.5697 46.8925 92.3805 46.2333C94.0022 44.915 95.5833 43.6067 97.1037 42.2782C103.236 37.0251 108.526 31.6097 112.287 26.3869C114.151 23.7705 115.682 21.2453 116.726 18.852C117.78 16.4688 118.429 14.2682 118.712 12.4123C119.016 10.5565 119.006 9.05559 118.946 8.05161C118.915 7.54455 118.875 7.15918 118.834 6.89551C118.804 6.63184 118.783 6.5 118.783 6.5C118.783 6.5 118.814 6.63184 118.875 6.88537C118.935 7.1389 119.016 7.52426 119.098 8.03133C119.25 9.03531 119.432 10.5565 119.27 12.4732C119.118 14.3899 118.672 16.7224 117.729 19.2475C116.797 21.7727 115.439 24.5108 113.635 27.2895C111.841 30.0682 109.672 32.928 107.158 35.7574C104.644 38.5868 101.837 41.4061 98.8064 44.1848C97.2861 45.564 95.705 46.9331 94.1036 48.3021C93.3029 48.9816 92.5022 49.6611 91.7015 50.3405C91.296 50.6853 90.9514 50.9896 90.5967 51.3546L89.4818 52.4702C86.5121 55.472 83.6336 58.6462 81.0897 62.0638C78.5659 65.4814 76.2855 69.0815 74.6131 72.8743C72.9509 76.657 71.8563 80.602 71.4508 84.5063C71.0657 88.4107 71.3698 92.2339 72.0894 95.8036C72.809 99.3734 73.9239 102.679 75.0489 105.712C76.1942 108.734 77.3699 111.482 78.3429 113.956C79.3362 116.421 80.1166 118.621 80.6437 120.467C81.1809 122.313 81.4343 123.804 81.5559 124.818C81.6167 125.325 81.6471 125.72 81.6674 125.984C81.6876 126.248 81.6978 126.379 81.6978 126.379L81.7181 126.41Z" fill="black"/>
<path d="M116.878 90.7938C116.878 90.7938 117.05 90.9257 117.364 91.1589C117.689 91.3922 118.125 91.7877 118.662 92.3252C119.199 92.8525 119.797 93.5421 120.466 94.3433C121.135 95.1546 121.794 96.118 122.523 97.1727C123.202 98.2578 123.952 99.424 124.652 100.712C125.341 102 126.071 103.359 126.719 104.819C127.368 106.279 128.037 107.791 128.595 109.373L128.706 109.667L128.817 110.001C128.878 110.204 128.949 110.387 129.01 110.61C129.132 111.056 129.263 111.512 129.355 111.938C129.557 112.8 129.699 113.652 129.831 114.504C130.095 116.208 130.236 117.911 130.368 119.575C130.49 121.238 130.571 122.881 130.591 124.463C130.611 126.045 130.642 127.576 130.611 129.026C130.581 130.476 130.541 131.846 130.49 133.103C130.368 135.628 130.206 137.727 130.064 139.198C129.912 140.668 129.801 141.5 129.801 141.5C129.801 141.5 129.709 140.658 129.568 139.198C129.436 137.738 129.233 135.648 129 133.133C128.888 131.886 128.767 130.527 128.635 129.097C128.503 127.667 128.351 126.166 128.209 124.605C128.037 123.053 127.855 121.461 127.672 119.828C127.48 118.216 127.226 116.583 126.932 114.981C126.78 114.179 126.628 113.388 126.426 112.628C126.334 112.232 126.233 111.888 126.132 111.533C126.081 111.36 126 111.147 125.939 110.955L125.858 110.701L125.746 110.417C125.179 108.906 124.621 107.405 124.013 105.975C123.415 104.545 122.878 103.146 122.3 101.848C121.743 100.54 121.216 99.3023 120.689 98.1766C119.685 95.905 118.753 94.0492 118.054 92.7714C117.699 92.1426 117.415 91.6355 117.192 91.311C116.979 90.9764 116.868 90.7938 116.868 90.7938H116.878Z" fill="black"/>
<path d="M173.353 15.2316C173.19 16.9961 172.998 18.7607 172.704 20.5151C172.4 22.2696 172.055 24.0139 171.63 25.748C170.768 29.2062 169.694 32.6136 168.386 35.94C167.089 39.2663 165.619 42.5216 164.028 45.706L161.646 50.452C161.261 51.2329 160.876 52.0239 160.521 52.8048C160.176 53.5857 159.842 54.3666 159.66 55.0663L159.7 54.7621C159.7 56.1818 159.71 57.6016 159.761 59.0214C159.812 60.4412 159.903 61.8508 159.994 63.2604C160.176 66.0797 160.511 68.8888 161.008 71.6573C161.271 73.0366 161.525 74.4158 161.879 75.7341C162.052 76.3832 162.254 77.0829 162.457 77.5697L163.308 79.5777C163.846 80.9264 164.403 82.3361 164.849 83.7153C165.325 85.0945 165.731 86.494 166.146 87.8935C166.521 89.3031 166.927 90.7026 167.251 92.1122C167.616 93.5218 167.879 94.9517 168.173 96.3715C168.437 97.8014 168.711 99.2212 168.923 100.661C169.156 102.091 169.329 103.531 169.491 104.971C169.653 106.411 169.775 107.862 169.876 109.302C169.957 110.752 170.018 112.202 170.028 113.642C170.048 114.362 170.028 115.092 170.018 115.812C169.998 116.532 169.998 117.262 169.937 117.982C169.876 119.433 169.694 120.863 169.521 122.292L169.461 120.132C169.44 119.412 169.369 118.692 169.339 117.982C169.248 116.553 169.106 115.123 168.944 113.703C168.792 112.283 168.589 110.863 168.366 109.454C168.153 108.044 167.92 106.634 167.656 105.235C167.403 103.835 167.099 102.436 166.805 101.047C166.521 99.6471 166.177 98.2679 165.832 96.8887C165.477 95.5095 165.102 94.1303 164.717 92.7714C164.352 91.3922 163.916 90.0434 163.501 88.6845C163.045 87.3357 162.609 85.9869 162.102 84.6685C161.626 83.3198 161.119 82.0622 160.572 80.7439L159.72 78.7866C159.366 77.955 159.163 77.2654 158.96 76.5251C158.565 75.0749 158.251 73.6349 158.008 72.1746C157.531 69.2742 157.217 66.3535 157.065 63.443C156.923 60.5223 156.943 57.6016 157.065 54.6911V54.5085L157.105 54.3868C157.41 53.3829 157.795 52.5513 158.2 51.7197C158.605 50.8983 159.031 50.1174 159.467 49.3264L162.041 44.6817C163.724 41.5886 165.366 38.4854 166.815 35.2909C168.265 32.0964 169.592 28.8411 170.667 25.4843C171.771 22.1377 172.653 18.7201 173.332 15.2417L173.353 15.2316Z" fill="black"/>
<path d="M150.903 86.3723C150.903 86.3723 150.771 86.8692 150.436 87.7008C150.092 88.5223 149.534 89.6885 148.713 90.9764C148.298 91.6153 147.852 92.3252 147.315 93.0148C146.788 93.7146 146.21 94.4447 145.561 95.1445C144.943 95.8747 144.234 96.5643 143.504 97.264C142.784 97.9739 141.994 98.6128 141.223 99.2821C140.412 99.9007 139.602 100.519 138.781 101.097C137.95 101.655 137.108 102.172 136.297 102.669C135.456 103.126 134.645 103.562 133.865 103.957C133.095 104.353 132.304 104.637 131.605 104.931C130.216 105.539 128.97 105.854 128.118 106.097C127.257 106.33 126.76 106.432 126.76 106.432C126.76 106.432 127.155 106.087 127.855 105.549C128.209 105.286 128.635 104.951 129.132 104.606C129.628 104.261 130.166 103.825 130.764 103.399C131.351 102.943 132.02 102.507 132.689 101.99C133.358 101.473 134.068 100.945 134.818 100.418C135.537 99.85 136.277 99.272 137.047 98.7041C137.798 98.1057 138.558 97.5074 139.318 96.9091C140.068 96.2904 140.808 95.6718 141.548 95.0634C142.267 94.4346 142.997 93.8464 143.666 93.2278C144.355 92.6295 145.004 92.0413 145.622 91.4734C146.24 90.9055 146.828 90.3578 147.365 89.8609C148.43 88.8367 149.311 87.9645 149.94 87.3459C150.558 86.707 150.913 86.3521 150.913 86.3521L150.903 86.3723Z" fill="black"/>
<path d="M157.035 18.9331C157.035 18.9331 157.136 19.6024 157.247 20.7788C157.288 21.367 157.41 22.0667 157.379 22.8983C157.359 23.7299 157.328 24.673 157.247 25.7176C157.136 26.7418 156.933 27.8371 156.71 29.0033C156.406 30.1392 156.092 31.3662 155.656 32.5731C155.17 33.7697 154.703 35.0374 154.045 36.2138C153.457 37.4408 152.717 38.5969 151.997 39.753C151.237 40.8787 150.467 42.0145 149.646 43.0489C148.845 44.1138 148.014 45.1076 147.213 46.0609C146.413 47.004 145.632 47.9167 144.892 48.7787C144.163 49.6407 143.494 50.4622 142.885 51.2228C142.561 51.598 142.318 51.9834 142.054 52.3383C141.791 52.7034 141.548 53.038 141.304 53.3626C140.919 54.042 140.524 54.6302 140.25 55.1373C139.784 56.1717 139.47 56.8004 139.47 56.8004C139.47 56.8004 139.521 56.1413 139.683 54.9446C139.804 54.3564 140.017 53.6668 140.271 52.8555C140.595 52.0949 140.919 51.1822 141.416 50.2898C141.659 49.8334 141.912 49.3669 142.176 48.8801C142.45 48.4035 142.764 47.937 143.068 47.4401C143.686 46.4463 144.365 45.4524 145.075 44.418C145.784 43.4039 146.524 42.3593 147.264 41.2945C148.014 40.2398 148.734 39.1649 149.453 38.0797C150.142 36.9946 150.852 35.9095 151.45 34.8041C152.119 33.719 152.616 32.5933 153.173 31.5285C153.67 30.4434 154.126 29.3684 154.541 28.3442C154.866 27.2895 155.251 26.3058 155.535 25.3829C155.758 24.4499 156.001 23.5879 156.214 22.8172C156.416 22.0363 156.508 21.3163 156.629 20.7484C156.852 19.5923 157.024 18.9331 157.024 18.9331H157.035Z" fill="black"/>
</g>
<path d="M203.985 89.7969C209.579 89.7969 213.392 89 215.423 87.4062C217.36 85.875 218.329 83.1484 218.329 79.2266C218.329 74.5391 216.54 72.1953 212.962 72.1953C210.946 72.1953 209.118 72.8438 207.478 74.1406C205.837 75.4219 204.923 77.2969 204.735 79.7656L203.985 89.7969ZM203.985 90.5H199.626V56.75H203.985C207.048 56.75 209.673 56.8984 211.86 57.1953C216.423 57.8203 218.704 59.5078 218.704 62.2578C218.704 63.2422 218.407 64.1562 217.814 65C217.517 65.4219 217.173 65.8438 216.782 66.2656C215.954 67.125 214.47 68.3203 212.329 69.8516C211.11 70.7266 209.931 71.6562 208.79 72.6406C210.259 71.8906 211.86 71.5156 213.595 71.5156C216.532 71.5156 218.821 72.2891 220.462 73.8359C221.946 75.2109 222.689 77.0078 222.689 79.2266C222.689 80.6797 222.337 82.0781 221.634 83.4219C220.571 85.4844 218.743 87.1172 216.15 88.3203C213.009 89.7734 208.954 90.5 203.985 90.5ZM203.985 77.9141C204.673 76.3203 205.587 75.0156 206.728 74C207.446 73.2344 208.181 72.4922 208.931 71.7734C209.868 70.8828 210.751 69.9688 211.579 69.0312C213.439 66.9219 214.368 64.6641 214.368 62.2578C214.368 60.3984 213.72 59.1328 212.423 58.4609C211.048 57.7734 208.235 57.4297 203.985 57.4297V77.9141ZM243.628 90.8281C239.128 90.8281 235.221 89.1016 231.909 85.6484C228.706 82.3359 227.104 78.3281 227.104 73.625C227.104 68.7969 228.807 64.6562 232.214 61.2031C235.401 58.0156 239.206 56.4219 243.628 56.4219C246.659 56.4219 249.425 57.1953 251.925 58.7422C253.175 59.5234 254.3 60.4375 255.3 61.4844C258.518 64.8438 260.128 68.8906 260.128 73.625C260.128 76.7812 259.385 79.6641 257.901 82.2734C257.151 83.5703 256.268 84.7266 255.253 85.7422C251.862 89.1328 247.987 90.8281 243.628 90.8281ZM246.792 89.0469C248.682 89.0469 250.339 88.6172 251.76 87.7578C253.745 86.5547 255.175 84.8672 256.05 82.6953C256.737 81.0078 257.081 79.1797 257.081 77.2109C257.081 73.6016 256.182 70.3359 254.385 67.4141C252.807 64.8203 250.932 62.7344 248.76 61.1562C246.01 59.1875 243.237 58.2031 240.44 58.2031C238.69 58.2031 237.042 58.6562 235.495 59.5625C233.51 60.7031 232.073 62.3672 231.182 64.5547C230.51 66.2109 230.175 68.0156 230.175 69.9688C230.175 73.5156 231.081 76.8047 232.893 79.8359C234.44 82.4297 236.307 84.5078 238.495 86.0703C241.229 88.0547 243.995 89.0469 246.792 89.0469ZM269.957 89.7969C275.379 89.7969 279.317 88.5625 281.77 86.0938C284.301 83.5625 285.567 79.3984 285.567 73.6016C285.567 68.0547 284.395 64 282.051 61.4375C279.598 58.7656 275.567 57.4297 269.957 57.4297V89.7969ZM269.957 90.5H265.598V56.75H269.957C274.77 56.75 278.825 57.6953 282.121 59.5859C285.215 61.3672 287.403 63.8516 288.684 67.0391C289.512 69.0859 289.926 71.2734 289.926 73.6016C289.926 75.9609 289.512 78.1641 288.684 80.2109C287.418 83.3203 285.293 85.7656 282.309 87.5469C278.981 89.5156 274.864 90.5 269.957 90.5ZM302.756 90.5H298.42V73.625L288.998 56.75H293.357L302.381 72.9453L303.975 69.7344C305.021 67.5312 306.029 65.1328 306.998 62.5391C307.967 59.9297 308.6 58 308.896 56.75H311.029L302.756 73.625V90.5Z" fill="black"/>
</g>
<defs>
<filter id="filter0_d_410_633" x="66.6473" y="7.5" width="112.705" height="143" filterUnits="userSpaceOnUse" color-interpolation-filters="sRGB">
<feFlood flood-opacity="0" result="BackgroundImageFix"/>
<feColorMatrix in="SourceAlpha" type="matrix" values="0 0 0 0 0 0 0 0 0 0 0 0 0 0 0 0 0 0 127 0" result="hardAlpha"/>
<feOffset dx="2" dy="4"/>
<feGaussianBlur stdDeviation="2"/>
<feComposite in2="hardAlpha" operator="out"/>
<feColorMatrix type="matrix" values="0 0 0 0 0 0 0 0 0 0 0 0 0 0 0 0 0 0 0.25 0"/>
<feBlend mode="normal" in2="BackgroundImageFix" result="effect1_dropShadow_410_633"/>
<feBlend mode="normal" in="SourceGraphic" in2="effect1_dropShadow_410_633" result="shape"/>
</filter>
<filter id="filter1_d_410_633" x="66.6473" y="6.5" width="112.705" height="143" filterUnits="userSpaceOnUse" color-interpolation-filters="sRGB">
<feFlood flood-opacity="0" result="BackgroundImageFix"/>
<feColorMatrix in="SourceAlpha" type="matrix" values="0 0 0 0 0 0 0 0 0 0 0 0 0 0 0 0 0 0 127 0" result="hardAlpha"/>
<feOffset dx="2" dy="4"/>
<feGaussianBlur stdDeviation="2"/>
<feComposite in2="hardAlpha" operator="out"/>
<feColorMatrix type="matrix" values="0 0 0 0 0 0 0 0 0 0 0 0 0 0 0 0 0 0 0.25 0"/>
<feBlend mode="normal" in2="BackgroundImageFix" result="effect1_dropShadow_410_633"/>
<feBlend mode="normal" in="SourceGraphic" in2="effect1_dropShadow_410_633" result="shape"/>
</filter>
<clipPath id="clip0_410_633">
<rect width="380" height="149" fill="white"/>
</clipPath>
</defs>
</svg>
