<svg width="380" height="149" viewBox="0 0 380 149" fill="none" xmlns="http://www.w3.org/2000/svg">
<g filter="url(#filter0_d_410_621)">
<path d="M52.9752 57.9958C52.6949 58.6365 52.4547 59.2772 52.1211 59.8912C51.8142 60.5319 51.4538 61.1325 51.1069 61.7331C50.3996 62.9478 49.5455 64.0689 48.6781 65.1768C47.7974 66.2713 46.8499 67.3124 45.8624 68.3134C44.8882 69.3278 43.8473 70.2755 42.7797 71.1831C42.2459 71.6369 41.7121 72.1041 41.165 72.5312C40.6178 72.9583 40.084 73.4255 39.5102 73.8259C38.3892 74.6535 37.2282 75.4543 36.0806 76.2418C34.9196 77.016 33.7452 77.7768 32.5308 78.4575C31.3298 79.1782 30.9408 79.3571 29.7264 80.0511C29.5262 80.9588 29.5282 81.1003 29.4615 82.0479C29.3814 82.9956 29.3414 83.9566 29.3948 84.9176C29.4215 85.8787 29.5416 86.8397 29.7017 87.8007C29.8485 88.7617 30.0754 89.7094 30.3556 90.6304C30.6359 91.5647 30.9428 92.4856 31.3031 93.3799C31.6634 94.2742 32.0905 95.1551 32.5575 95.996L33.3048 97.2373L34.1322 98.4253C34.7327 99.1727 35.3466 99.9202 36.0272 100.601C36.7078 101.268 37.4417 101.909 38.2291 102.443C39.0164 102.99 39.8438 103.484 40.7246 103.871C41.1516 104.085 41.592 104.271 42.0591 104.418C42.5128 104.592 42.9665 104.739 43.4469 104.845C43.914 104.979 44.3944 105.072 44.8748 105.139C45.3552 105.232 45.849 105.286 46.3428 105.299C46.8365 105.339 47.3303 105.366 47.8374 105.339C48.3312 105.339 48.8383 105.339 49.3454 105.272C50.3596 105.206 51.3471 104.992 52.3613 104.805C53.3488 104.552 54.363 104.311 55.3372 103.951C56.3381 103.671 57.2856 103.23 58.2731 102.843C57.3923 103.404 56.5382 104.045 55.5908 104.525C54.67 105.059 53.6958 105.473 52.7083 105.913C51.7074 106.287 50.6798 106.634 49.6123 106.861C49.0918 107.008 48.5447 107.088 47.9975 107.168C47.4504 107.261 46.9033 107.328 46.3561 107.328C45.809 107.368 45.2485 107.368 44.688 107.328C44.1275 107.328 43.567 107.275 43.0199 107.181C42.4594 107.114 41.9123 107.021 41.3651 106.874C40.8046 106.754 40.2709 106.594 39.7371 106.394C38.6695 106.02 37.6419 105.526 36.6544 104.952C35.6669 104.378 34.7594 103.697 33.8787 102.977C33.0112 102.243 32.2239 101.428 31.4899 100.574L30.449 99.2395C30.1288 98.7723 29.8085 98.3185 29.5016 97.838C28.3139 95.9293 27.353 93.8871 26.6858 91.7382C26.3522 90.6704 26.0853 89.5759 25.8851 88.4681C25.6849 87.3602 25.5381 86.239 25.4847 85.1179C25.4047 83.9967 25.4314 82.8488 25.5114 81.7143C25.5915 80.5797 25.8184 79.4318 26.0853 78.3107L26.2854 77.4431L27.0728 77.0427C29.4749 75.8013 31.8102 74.4399 34.1589 73.1319C35.3199 72.4511 36.4676 71.7571 37.6019 71.023C38.7362 70.3022 39.8839 69.5948 40.9781 68.8206C42.0858 68.0598 43.1667 67.259 44.2476 66.4581C45.3286 65.6573 46.3428 64.7764 47.3703 63.9088C48.3979 63.0278 49.3587 62.0935 50.3062 61.1192C50.7733 60.6253 51.2403 60.1314 51.6807 59.6109C52.1478 59.117 52.5348 58.5297 52.9752 57.9958Z" fill="#8F7242"/>
<path d="M77.5831 17.6331C77.5831 17.6331 77.6899 17.8199 77.8901 18.167C78.0635 18.5273 78.3571 19.0612 78.5973 19.782C79.1178 21.2102 79.6115 23.3725 79.6249 26.0286C79.6249 27.35 79.5582 28.7915 79.2379 30.3265C79.0777 31.0873 78.8776 31.8748 78.5573 32.7023C78.1836 33.5165 77.9301 34.3974 76.729 35.3451C75.8082 35.8924 75.6214 35.8256 75.2077 36.0125C74.8207 36.146 74.4337 36.2928 74.0467 36.4263C73.2594 36.6799 72.472 36.9468 71.6713 37.2138C70.07 37.7076 68.4552 38.1881 66.8538 38.6553C63.6511 39.5896 60.515 40.4839 57.8327 41.6985C56.4982 42.2991 55.2705 42.9665 54.1896 43.7273C53.122 44.5015 52.2145 45.3424 51.4405 46.2366C50.6932 47.1309 50.0927 48.0519 49.5856 48.9061C49.1319 49.7737 48.7449 50.5746 48.4646 51.2419C48.1977 51.9226 47.9709 52.4565 47.8508 52.8436C47.704 53.2173 47.6372 53.4176 47.6372 53.4176C47.6372 53.4176 47.6372 53.204 47.6239 52.8036C47.6239 52.4032 47.5972 51.8025 47.6773 51.0551C47.7974 49.5601 48.1577 47.3178 49.4922 44.9019C50.1461 43.6873 51.0669 42.4727 52.2145 41.3915C53.3488 40.2837 54.71 39.3093 56.1913 38.4818C59.1539 36.8267 62.4901 35.7589 65.7596 34.8379C67.401 34.3708 69.0291 33.9703 70.6171 33.5566C71.4044 33.3563 72.1918 33.1561 72.9791 32.9559C73.3661 32.8625 73.7531 32.7557 74.1401 32.6623C74.4871 32.5822 75.1143 32.3953 74.8474 32.5021C74.9408 32.5288 75.4346 31.9549 75.7015 31.421C76.0084 30.8604 76.262 30.2197 76.4888 29.5924C76.9292 28.3244 77.2628 27.0564 77.463 25.8551C77.6498 24.6538 77.8233 23.546 77.8634 22.5449C77.9034 21.5439 77.9167 20.6629 77.8634 19.9422C77.81 19.2081 77.7433 18.6475 77.6765 18.247C77.6098 17.8466 77.5698 17.6464 77.5698 17.6464L77.5831 17.6331Z" fill="#8F7242"/>
<path d="M69.4036 88.2679C69.4036 88.2679 69.4569 88.5749 69.5637 89.1488C69.6971 89.7094 69.7505 90.5903 70.0841 91.6047C70.2309 92.1119 70.3911 92.6725 70.5646 93.2732C70.7914 93.8604 71.045 94.4878 71.3252 95.1685C71.6055 95.8359 72.0191 96.4899 72.3795 97.2107C72.8065 97.8914 73.2736 98.5854 73.7807 99.2929C74.3812 99.9335 74.8749 100.694 75.6089 101.295C75.9425 101.615 76.2895 101.936 76.6365 102.269C77.0101 102.563 77.3971 102.857 77.7841 103.164C79.3855 104.311 81.2004 105.353 83.2155 106.1C87.2189 107.635 91.9163 108.209 96.4536 107.595C98.7222 107.288 100.951 106.714 103.033 105.886C105.101 105.019 107.023 103.924 108.744 102.63C109.558 101.936 110.386 101.282 111.093 100.521C111.867 99.8134 112.481 99.0126 113.108 98.2384C113.749 97.4776 114.189 96.5967 114.749 95.8359C115.203 95.0083 115.63 94.1941 116.044 93.4066C116.377 92.5791 116.698 91.7916 117.005 91.0441C117.272 90.27 117.485 89.5225 117.712 88.8285C118.139 87.427 118.339 86.1456 118.606 85.0912C118.9 82.9689 119.113 81.741 119.113 81.741C119.113 81.741 119.247 82.9689 119.407 85.1579C119.353 86.2391 119.433 87.6005 119.22 89.1221C119.113 89.8829 119.02 90.7104 118.873 91.5647C118.659 92.4189 118.433 93.2998 118.192 94.2342C117.859 95.1418 117.525 96.0895 117.138 97.0638C116.644 97.9848 116.204 98.9992 115.59 99.9335C114.416 101.856 112.868 103.711 111.013 105.353C109.105 106.928 106.983 108.423 104.581 109.45C102.179 110.465 99.6163 111.185 97.0141 111.573C94.3851 111.879 91.7428 111.826 89.1673 111.492C86.5917 111.172 84.1363 110.331 81.881 109.343C79.599 108.382 77.624 106.954 75.9292 105.473C74.1944 104.005 72.9399 102.229 71.9124 100.574C71.4587 99.7066 71.0183 98.8791 70.6847 98.0649C70.4178 97.224 70.0975 96.4365 69.9107 95.689C69.7505 94.9149 69.5904 94.2075 69.4703 93.5535C69.4169 92.8861 69.3769 92.2587 69.3368 91.7115C69.3235 91.4312 69.2968 91.1776 69.2834 90.9374C69.2968 90.6971 69.3101 90.4702 69.3235 90.2566C69.3502 89.8295 69.3769 89.4825 69.3902 89.1888C69.4302 88.6016 69.4436 88.2946 69.4436 88.2946L69.4036 88.2679Z" fill="#8F7242"/>
<path d="M103.792 9.22424C103.792 9.22424 103.979 10.3588 104.313 12.3342C104.66 14.3096 105.047 17.166 105.848 20.4628C106.275 22.0912 106.795 23.8664 107.742 25.4414C108.677 27.0297 110.171 28.2043 112.053 28.7782C113.934 29.3655 116.043 29.5791 118.285 29.4723C120.554 29.3522 122.849 29.2988 125.158 29.3121C127.466 29.3522 129.815 29.4056 132.137 29.7259C134.459 30.0062 136.808 30.4734 139.023 31.3944C140.13 31.8749 141.198 32.4621 142.159 33.1829C143.106 33.9304 143.934 34.7979 144.628 35.7056C145.989 37.5609 146.656 39.563 147.056 41.3515C147.457 43.1535 147.51 44.8085 147.564 46.2367C147.55 47.6782 147.497 48.9195 147.377 49.934C147.283 50.9484 147.163 51.7492 147.056 52.2831C146.963 52.817 146.91 53.1106 146.91 53.1106C146.91 53.1106 146.856 52.8303 146.75 52.2831C146.643 51.7492 146.496 50.9751 146.309 49.974C145.909 48.0119 145.415 45.1689 144.281 42.1524C143.72 40.6441 142.893 39.1759 141.839 37.9079C140.731 36.6799 139.276 35.7323 137.515 35.0516C135.74 34.3842 133.712 33.917 131.576 33.5833C129.428 33.2763 127.199 32.9827 124.944 32.7558C122.689 32.4888 120.407 32.2486 118.165 31.9282C115.91 31.6613 113.534 31.5011 111.359 30.6202C110.278 30.1931 109.25 29.5791 108.396 28.8183C107.529 28.0575 106.888 27.1232 106.395 26.1888C105.434 24.3069 105.033 22.4115 104.753 20.6897C104.219 17.2461 104.086 14.3764 103.953 12.3742C103.832 10.3721 103.779 9.22424 103.779 9.22424L103.792 9.22424Z" fill="#8F7242"/>
<path d="M129.161 78.8578C128.953 76.1613 128.777 73.4566 128.659 70.7628C128.667 73.9586 128.368 77.1264 127.947 80.2593C127.841 81.0237 127.727 81.7864 127.605 82.5475C127.683 83.0683 127.763 83.5895 127.843 84.1118L127.843 84.1131L127.867 84.2636C128.134 85.9987 128.427 87.7205 128.747 89.4424C128.894 90.2966 129.068 91.1642 129.241 92.0184C129.415 92.8727 129.575 93.7269 129.775 94.5811C130.149 96.2896 130.549 97.9847 131.003 99.6799C131.456 101.362 131.937 103.043 132.524 104.698C132.818 105.513 133.084 106.34 133.418 107.154L134.432 109.57L133.618 107.088C133.351 106.26 133.151 105.419 132.924 104.578C132.684 103.737 132.511 102.883 132.324 102.042C132.137 101.188 131.923 100.347 131.777 99.493C131.43 97.7979 131.136 96.0894 130.869 94.3676C130.722 93.5133 130.616 92.6458 130.496 91.7915C130.375 90.9373 130.255 90.083 130.162 89.2155C129.722 85.7719 129.441 82.3147 129.161 78.8578Z" fill="#8F7242"/>
<path d="M128.659 70.7628C128.626 70.008 128.598 69.254 128.574 68.5013L126.065 68.607C126.332 72.1307 126.706 75.5877 127.133 79.0714C127.267 80.2334 127.431 81.3895 127.605 82.5475C127.727 81.7864 127.841 81.0237 127.947 80.2593C128.368 77.1264 128.667 73.9586 128.659 70.7628Z" fill="#8F7242"/>
<path d="M110.772 123.345C109.491 127.042 107.609 134.757 107.609 134.757C111.096 128.235 111.284 127.894 113.488 123.622C115.692 119.35 115.71 119.35 118.444 113.455C121.348 106.706 121.354 106.661 122.542 102.963C123.743 99.2527 124.824 95.5155 125.745 91.7381C126.473 88.7067 127.107 85.6409 127.605 82.5475C127.431 81.3895 127.267 80.2334 127.133 79.0714C126.706 75.5877 126.332 72.1307 126.065 68.607L128.574 68.5013L128.574 68.4869C128.547 67.8062 127.987 67.2589 127.306 67.2589C126.612 67.2589 126.038 67.8329 126.038 68.5269V68.5937C126.025 72.3176 125.611 76.0949 124.971 79.8189C124.33 83.5561 123.463 87.2534 122.462 90.9239C121.474 94.5945 120.353 98.2383 119.112 101.829C117.858 105.433 116.497 108.943 114.989 112.48C113.508 116.057 112.066 119.661 110.772 123.345Z" fill="#8F7242"/>
<path d="M48.9718 112.333C48.7993 111.844 48.6887 111.521 48.6401 111.377C48.6621 111.539 48.7074 111.874 48.7716 112.36C48.865 113.067 48.9985 114.109 49.292 115.43C49.5589 116.765 49.9326 118.353 50.4664 120.155C50.9601 121.957 51.614 123.972 52.3614 126.148C53.1087 128.31 53.9227 130.646 54.7901 133.115C55.6175 135.558 56.4716 138.174 56.9386 140.75C57.9555 137.548 58.2973 134.216 57.5659 132.061C56.1363 128.663 55.444 127.389 54.4832 125.32C53.5357 123.238 52.6283 121.356 51.8943 119.661C51.1603 117.966 50.5198 116.484 50.0527 115.243C49.5589 114.015 49.1986 113.014 48.9718 112.333Z" fill="#8F7242"/>
</g>
<g filter="url(#filter1_d_410_621)">
<path d="M52.9752 57.0216C52.6949 57.6623 52.4547 58.303 52.1211 58.9169C51.8142 59.5576 51.4538 60.1583 51.1069 60.7589C50.3996 61.9735 49.5455 63.0947 48.6781 64.2025C47.7974 65.297 46.8499 66.3381 45.8624 67.3392C44.8882 68.3536 43.8473 69.3013 42.7797 70.2089C42.2459 70.6627 41.7121 71.1299 41.165 71.557C40.6178 71.9841 40.084 72.4513 39.5102 72.8517C38.3892 73.6792 37.2282 74.4801 36.0806 75.2676C34.9196 76.0417 33.7452 76.8025 32.5308 77.4832C31.3298 78.204 30.9553 78.3059 29.7409 79C29.5408 79.9076 29.5282 80.126 29.4615 81.0737C29.3814 82.0214 29.3414 82.9824 29.3948 83.9434C29.4215 84.9044 29.5416 85.8654 29.7017 86.8265C29.8485 87.7875 30.0754 88.7351 30.3556 89.6561C30.6359 90.5904 30.9428 91.5114 31.3031 92.4057C31.6634 93.3 32.0905 94.1809 32.5575 95.0218L33.3048 96.2631L34.1322 97.451C34.7327 98.1985 35.3466 98.9459 36.0272 99.6267C36.7078 100.294 37.4417 100.935 38.2291 101.469C39.0164 102.016 39.8438 102.51 40.7246 102.897C41.1516 103.11 41.592 103.297 42.0591 103.444C42.5128 103.618 42.9665 103.764 43.4469 103.871C43.914 104.005 44.3944 104.098 44.8748 104.165C45.3552 104.258 45.849 104.312 46.3428 104.325C46.8365 104.365 47.3303 104.392 47.8374 104.365C48.3312 104.365 48.8383 104.365 49.3454 104.298C50.3596 104.232 51.3471 104.018 52.3613 103.831C53.3488 103.577 54.363 103.337 55.3372 102.977C56.3381 102.697 57.2856 102.256 58.2731 101.869C57.3923 102.43 56.5382 103.07 55.5908 103.551C54.67 104.085 53.6958 104.498 52.7083 104.939C51.7074 105.313 50.6798 105.66 49.6123 105.887C49.0918 106.033 48.5447 106.114 47.9975 106.194C47.4504 106.287 46.9033 106.354 46.3561 106.354C45.809 106.394 45.2485 106.394 44.688 106.354C44.1275 106.354 43.567 106.3 43.0199 106.207C42.4594 106.14 41.9123 106.047 41.3651 105.9C40.8046 105.78 40.2709 105.62 39.7371 105.419C38.6695 105.046 37.6419 104.552 36.6544 103.978C35.6669 103.404 34.7594 102.723 33.8787 102.002C33.0112 101.268 32.2239 100.454 31.4899 99.6L30.449 98.2652C30.1288 97.7981 29.8085 97.3442 29.5016 96.8637C28.3139 94.955 27.353 92.9129 26.6858 90.7639C26.3522 89.6962 26.0853 88.6017 25.8851 87.4938C25.6849 86.386 25.5381 85.2648 25.4847 84.1436C25.4047 83.0224 25.4314 81.8746 25.5114 80.74C25.5915 79.6055 25.8184 78.4576 26.0853 77.3364L26.2854 76.4688L27.0728 76.0684C29.4749 74.8271 31.8102 73.4657 34.1589 72.1576C35.3199 71.4769 36.4676 70.7828 37.6019 70.0487C38.7362 69.3279 39.8839 68.6205 40.9781 67.8464C42.0858 67.0856 43.1667 66.2847 44.2476 65.4839C45.3286 64.683 46.3428 63.8021 47.3703 62.9345C48.3979 62.0536 49.3587 61.1193 50.3062 60.1449C50.7733 59.6511 51.2403 59.1572 51.6807 58.6366C52.1478 58.1428 52.5348 57.5555 52.9752 57.0216Z" fill="black"/>
<path d="M77.5831 16.6588C77.5831 16.6588 77.6898 16.8457 77.89 17.1927C78.0635 17.5531 78.3571 18.087 78.5973 18.8078C79.1177 20.2359 79.6115 22.3982 79.6248 25.0544C79.6248 26.3758 79.5581 27.8173 79.2378 29.3522C79.0777 30.113 78.8775 30.9005 78.5572 31.7281C78.1836 32.5423 77.93 33.4232 76.729 34.3709C75.8082 34.9181 75.6214 34.8514 75.2077 35.0382C74.8207 35.1717 74.4337 35.3185 74.0467 35.452C73.2593 35.7056 72.472 35.9726 71.6713 36.2395C70.0699 36.7334 68.4552 37.2139 66.8538 37.681C63.651 38.6154 60.515 39.5096 57.8327 40.7243C56.4982 41.3249 55.2704 41.9923 54.1895 42.7531C53.1219 43.5272 52.2145 44.3681 51.4405 45.2624C50.6932 46.1567 50.0926 47.0776 49.5855 47.9319C49.1318 48.7995 48.7448 49.6003 48.4646 50.2677C48.1977 50.9484 47.9708 51.4823 47.8507 51.8694C47.7039 52.2431 47.6372 52.4433 47.6372 52.4433C47.6372 52.4433 47.6372 52.2298 47.6238 51.8293C47.6238 51.4289 47.5571 51.7475 47.6372 51C47.7573 49.5051 48.1176 47.2627 49.4521 44.8468C50.106 43.6322 51.0268 42.4176 52.1744 41.3364C53.3087 40.2286 54.6699 39.2542 56.1512 38.4267C59.1138 36.7716 62.45 35.7038 65.7195 34.7829C67.3609 34.3157 68.989 33.9153 70.577 33.5015C71.3643 33.3013 72.1517 33.1011 72.939 32.9009C73.326 32.8074 73.713 32.7007 74.1 32.6072C74.447 32.5271 74.1 32.6072 74.8073 32.4471C74.9906 32.4056 75.1695 32.0339 75.4364 31.5C75.7433 30.9394 76.2619 29.2455 76.4888 28.6181C76.9292 27.3501 77.2628 26.0821 77.463 24.8808C77.6498 23.6796 77.8233 22.5717 77.8633 21.5707C77.9033 20.5696 77.9167 19.6887 77.8633 18.9679C77.8099 18.2338 77.7432 17.6732 77.6765 17.2728C77.6097 16.8724 77.5697 16.6722 77.5697 16.6722L77.5831 16.6588Z" fill="black"/>
<path d="M69.4036 87.2936C69.4036 87.2936 69.4569 87.6006 69.5637 88.1746C69.6971 88.7351 69.7505 89.6161 70.0841 90.6305C70.2309 91.1377 70.3911 91.6983 70.5646 92.2989C70.7914 92.8862 71.045 93.5135 71.3252 94.1942C71.6055 94.8616 72.0191 95.5156 72.3795 96.2364C72.8065 96.9171 73.2736 97.6112 73.7807 98.3186C74.3812 98.9593 74.8749 99.7201 75.6089 100.321C75.9425 100.641 76.2895 100.961 76.6365 101.295C77.0101 101.589 77.3971 101.882 77.7841 102.189C79.3855 103.337 81.2004 104.378 83.2155 105.126C87.2189 106.661 91.9163 107.235 96.4536 106.621C98.7222 106.314 100.951 105.74 103.033 104.912C105.101 104.045 107.023 102.95 108.744 101.655C109.558 100.961 110.386 100.307 111.093 99.5466C111.867 98.8392 112.481 98.0383 113.108 97.2642C113.749 96.5034 114.189 95.6224 114.749 94.8616C115.203 94.0341 115.63 93.2199 116.044 92.4324C116.377 91.6048 116.698 90.8173 117.005 90.0699C117.272 89.2957 117.485 88.5483 117.712 87.8542C118.139 86.4527 118.339 85.1714 118.606 84.1169C118.9 81.9947 119.113 80.7667 119.113 80.7667C119.113 80.7667 119.247 81.9947 119.407 84.1837C119.353 85.2648 119.433 86.6262 119.22 88.1479C119.113 88.9087 119.02 89.7362 118.873 90.5904C118.659 91.4447 118.433 92.3256 118.192 93.2599C117.859 94.1676 117.525 95.1152 117.138 96.0896C116.644 97.0106 116.204 98.025 115.59 98.9593C114.416 100.881 112.868 102.737 111.013 104.378C109.105 105.953 106.983 107.448 104.581 108.476C102.179 109.49 99.6163 110.211 97.0141 110.598C94.3851 110.905 91.7428 110.852 89.1673 110.518C86.5917 110.198 84.1363 109.357 81.881 108.369C79.599 107.408 77.624 105.98 75.9292 104.498C74.1944 103.03 72.9399 101.255 71.9124 99.6C71.4587 98.7324 71.0183 97.9048 70.6847 97.0906C70.4178 96.2498 70.0975 95.4623 69.9107 94.7148C69.7505 93.9406 69.5904 93.2332 69.4703 92.5792C69.4169 91.9118 69.3769 91.2845 69.3368 90.7373C69.3235 90.457 69.2968 90.2034 69.2834 89.9631C69.2968 89.7229 69.3101 89.4959 69.3235 89.2824C69.3502 88.8553 69.3769 88.5082 69.3902 88.2146C69.4302 87.6273 69.4436 87.3203 69.4436 87.3203L69.4036 87.2936Z" fill="black"/>
<path d="M103.792 8.25C103.792 8.25 103.979 9.38453 104.313 11.36C104.66 13.3354 105.047 16.1917 105.848 19.4885C106.275 21.1169 106.795 22.8921 107.742 24.4671C108.677 26.0555 110.044 27.7704 111.926 28.3443C113.807 28.9316 115.916 29.1451 118.158 29.0384C120.426 28.9182 122.722 28.8648 125.03 28.8782C127.339 28.9182 129.688 28.9716 132.01 29.292C134.332 29.5723 136.68 30.0394 138.896 30.9604C140.003 31.4409 140.976 31.7792 141.936 32.5C142.884 33.2475 143.807 34.364 144.501 35.2716C145.862 37.1269 146.529 39.129 146.929 40.9176C147.33 42.7195 147.383 44.3746 147.436 45.8028C147.423 47.2443 147.37 48.4856 147.25 49.5C147.156 50.5144 147.163 50.775 147.056 51.3089C146.963 51.8428 146.91 52.1364 146.91 52.1364C146.91 52.1364 146.856 51.8561 146.75 51.3089C146.643 50.775 146.496 50.0008 146.309 48.9998C145.909 47.0377 145.415 44.1947 144.281 41.1782C143.72 39.6699 142.893 38.2017 141.839 36.9337C140.731 35.7057 139.276 34.758 137.515 34.0773C135.74 33.4099 133.712 32.9428 131.576 32.6091C129.428 32.3021 127.199 32.0085 124.944 31.7815C122.689 31.5146 120.407 31.2743 118.165 30.954C115.91 30.6871 113.534 30.5269 111.359 29.646C110.278 29.2188 109.25 28.6049 108.396 27.8441C107.529 27.0832 106.888 26.1489 106.395 25.2146C105.434 23.3326 105.033 21.4373 104.753 19.7155C104.219 16.2718 104.086 13.4021 103.953 11.4C103.832 9.39788 103.779 8.25 103.779 8.25L103.792 8.25Z" fill="black"/>
<path d="M129.161 77.8836C128.953 75.187 128.692 70.3132 128.574 67.6194C128.581 70.8152 127.605 81.5733 127.605 81.5733C127.683 82.0941 127.763 82.6152 127.843 83.1376L127.843 83.1389L127.867 83.2893C128.134 85.0245 128.427 86.7463 128.747 88.4681C128.894 89.3224 129.068 90.1899 129.241 91.0442C129.415 91.8984 129.575 92.7527 129.775 93.6069C130.149 95.3154 130.549 97.0105 131.003 98.7056C131.456 100.387 131.937 102.069 132.524 103.724C132.818 104.538 133.084 105.366 133.418 106.18L134.432 108.596L133.618 106.113C133.351 105.286 133.151 104.445 132.924 103.604C132.684 102.763 132.511 101.909 132.324 101.068C132.137 100.214 131.923 99.373 131.777 98.5187C131.43 96.8236 131.136 95.1152 130.869 93.3933C130.722 92.5391 130.616 91.6715 130.496 90.8173C130.375 89.963 130.255 89.1088 130.162 88.2412C129.722 84.7977 129.441 81.3405 129.161 77.8836Z" fill="black"/>
<path d="M110.772 122.371C109.491 126.068 107.609 133.783 107.609 133.783C111.096 127.261 111.284 126.919 113.488 122.648C115.692 118.376 115.71 118.376 118.444 112.481C121.315 105.809 121.354 105.688 122.502 102.115L122.542 101.989C123.743 98.2785 124.824 94.5412 125.745 90.7639C126.473 87.7324 127.107 84.6666 127.605 81.5733C127.605 81.5733 128.581 70.8152 128.574 67.6194V67.5126C128.547 66.8319 127.987 66.2847 127.306 66.2847C126.612 66.2847 126.038 66.8586 126.038 67.5527V67.6194C126.025 71.3434 125.611 75.1207 124.971 78.8446C124.33 82.5819 123.463 86.2791 122.462 89.9497C121.474 93.6202 120.353 97.2641 119.112 100.855C117.858 104.458 116.497 107.969 114.989 111.506C113.508 115.083 112.066 118.687 110.772 122.371Z" fill="black"/>
<path d="M48.9718 111.359C48.7993 110.87 48.6887 110.547 48.6401 110.403C48.6621 110.565 48.7074 110.9 48.7716 111.386C48.865 112.093 48.9985 113.134 49.292 114.456C49.5589 115.79 49.9326 117.379 50.4664 119.181C50.9601 120.983 51.614 122.998 52.3614 125.174C53.1087 127.336 53.9227 129.672 54.7901 132.141C55.6175 134.584 56.4716 137.2 56.9386 139.776C57.9555 136.574 58.2973 133.242 57.5659 131.087C56.1363 127.688 55.444 126.415 54.4832 124.346C53.5357 122.264 52.6283 120.382 51.8943 118.687C51.1603 116.992 50.5198 115.51 50.0527 114.269C49.5589 113.041 49.1986 112.04 48.9718 111.359Z" fill="black"/>
</g>
<path d="M178.196 89.7969C183.79 89.7969 187.603 89 189.634 87.4062C191.571 85.875 192.54 83.1484 192.54 79.2266C192.54 74.5391 190.751 72.1953 187.173 72.1953C185.157 72.1953 183.329 72.8438 181.689 74.1406C180.048 75.4219 179.134 77.2969 178.946 79.7656L178.196 89.7969ZM178.196 90.5H173.837V56.75H178.196C181.259 56.75 183.884 56.8984 186.071 57.1953C190.634 57.8203 192.915 59.5078 192.915 62.2578C192.915 63.2422 192.618 64.1562 192.025 65C191.728 65.4219 191.384 65.8438 190.993 66.2656C190.165 67.125 188.681 68.3203 186.54 69.8516C185.321 70.7266 184.142 71.6562 183.001 72.6406C184.47 71.8906 186.071 71.5156 187.806 71.5156C190.743 71.5156 193.032 72.2891 194.673 73.8359C196.157 75.2109 196.9 77.0078 196.9 79.2266C196.9 80.6797 196.548 82.0781 195.845 83.4219C194.782 85.4844 192.954 87.1172 190.36 88.3203C187.22 89.7734 183.165 90.5 178.196 90.5ZM178.196 77.9141C178.884 76.3203 179.798 75.0156 180.939 74C181.657 73.2344 182.392 72.4922 183.142 71.7734C184.079 70.8828 184.962 69.9688 185.79 69.0312C187.65 66.9219 188.579 64.6641 188.579 62.2578C188.579 60.3984 187.931 59.1328 186.634 58.4609C185.259 57.7734 182.446 57.4297 178.196 57.4297V77.9141ZM223.651 90.5H219.292C219.292 85.7969 218.8 82.3359 217.815 80.1172C217.471 79.3516 217.065 78.6875 216.596 78.125C215.596 76.9844 214.214 76.4141 212.448 76.4141C211.292 76.4141 210.237 76.875 209.284 77.7969C207.346 79.6719 206.378 81.9609 206.378 84.6641V90.5H202.018V56.75H206.378C209.971 56.75 213.057 57.0156 215.635 57.5469C220.979 58.6406 223.651 60.875 223.651 64.25C223.651 65.5938 223.284 66.7578 222.55 67.7422C222.175 68.2422 221.745 68.7266 221.26 69.1953C220.198 70.1797 218.432 71.3672 215.964 72.7578C213.698 74.0391 211.932 75.1641 210.667 76.1328C211.635 75.7891 212.706 75.6172 213.878 75.6172C215.721 75.6172 217.385 76.1719 218.87 77.2812C219.589 77.8438 220.237 78.5312 220.815 79.3438C222.706 82 223.651 85.7188 223.651 90.5ZM206.378 80.6094C206.753 79.625 207.284 78.7031 207.971 77.8438C209.003 76.5625 210.651 75.1094 212.917 73.4844C214.026 72.7031 215.065 71.8906 216.034 71.0469C218.206 69.1406 219.292 66.875 219.292 64.25C219.292 61.9375 218.425 60.2578 216.69 59.2109C214.737 58.0234 211.3 57.4297 206.378 57.4297V80.6094ZM248.504 90.5H229.825V56.75H248.504V58.8594C247.239 58.5469 245.27 58.2344 242.598 57.9219C239.926 57.5938 237.121 57.4297 234.184 57.4297V79.3906C234.84 77.2188 235.903 75.4609 237.371 74.1172C239.715 71.9609 242.793 70.8828 246.606 70.8828V72.7812C242.606 72.7812 239.598 73.6172 237.582 75.2891C235.317 77.1953 234.184 80.3906 234.184 84.875V89.7969C237.121 89.7969 239.926 89.6406 242.598 89.3281C245.27 89.0156 247.239 88.6953 248.504 88.3672V90.5ZM277.834 90.5H273.498L268.646 77.6797C266.85 77.8516 265.185 78.2969 263.654 79.0156C261.607 79.9688 259.865 81.25 258.428 82.8594C257.084 84.3594 256.053 86.0312 255.334 87.875C255.115 88.9375 254.975 89.8125 254.912 90.5H252.779L265.06 56.75L277.834 90.5ZM255.803 85.8359C256.412 84.4453 257.232 83.1406 258.264 81.9219C259.826 80.0469 261.678 78.5391 263.818 77.3984C265.178 76.6797 266.56 76.1875 267.967 75.9219L263.279 63.5469L258.24 77.5156C257.334 80 256.521 82.7734 255.803 85.8359ZM290.757 90.8281C289.179 90.8281 287.468 90.6094 285.625 90.1719C283.781 89.7344 282.203 89.1094 280.89 88.2969L283.117 85.0859C284.429 86.1953 286.234 87.1406 288.531 87.9219C290.828 88.6875 293.078 89.0703 295.281 89.0703C297.421 89.0703 299.101 88.625 300.32 87.7344C301.632 86.7656 302.289 85.3516 302.289 83.4922C302.289 82.2734 302.015 81.2344 301.468 80.375C300.515 78.8906 298.75 77.6406 296.171 76.625C295.015 76.1875 293.82 75.7656 292.585 75.3594C289.351 74.3125 286.968 73.2891 285.437 72.2891C283.265 70.8516 282.179 68.8359 282.179 66.2422C282.179 64.4766 282.726 62.8438 283.82 61.3438C284.382 60.5938 285.046 59.9219 285.812 59.3281C288.296 57.3906 291.414 56.4219 295.164 56.4219C298.304 56.4219 301.164 57.2578 303.742 58.9297L301.539 62.1406C300.273 61.0625 298.671 60.1406 296.734 59.375C294.796 58.5938 292.843 58.2031 290.875 58.2031C289.234 58.2031 287.914 58.6016 286.914 59.3984C285.789 60.3203 285.226 61.6406 285.226 63.3594C285.226 64.7188 285.507 65.8672 286.07 66.8047C287.085 68.4297 288.929 69.7656 291.601 70.8125C292.789 71.2656 294.015 71.6953 295.281 72.1016C298.468 73.1172 300.773 74.1016 302.195 75.0547C304.289 76.4453 305.335 78.3672 305.335 80.8203C305.335 83.7734 303.96 86.1797 301.21 88.0391C298.46 89.8984 294.976 90.8281 290.757 90.8281ZM320.814 90.5H316.454V57.4297C314.798 57.4297 313.025 57.5938 311.134 57.9219C309.243 58.2344 307.853 58.5469 306.962 58.8594V56.75H330.306V58.8594C329.415 58.5469 328.025 58.2344 326.134 57.9219C324.243 57.5938 322.47 57.4297 320.814 57.4297V90.5ZM338.682 90.8281C337.104 90.8281 335.393 90.6094 333.55 90.1719C331.706 89.7344 330.128 89.1094 328.815 88.2969L331.042 85.0859C332.354 86.1953 334.159 87.1406 336.456 87.9219C338.753 88.6875 341.003 89.0703 343.206 89.0703C345.346 89.0703 347.026 88.625 348.245 87.7344C349.557 86.7656 350.214 85.3516 350.214 83.4922C350.214 82.2734 349.94 81.2344 349.393 80.375C348.44 78.8906 346.675 77.6406 344.096 76.625C342.94 76.1875 341.745 75.7656 340.51 75.3594C337.276 74.3125 334.893 73.2891 333.362 72.2891C331.19 70.8516 330.104 68.8359 330.104 66.2422C330.104 64.4766 330.651 62.8438 331.745 61.3438C332.307 60.5938 332.971 59.9219 333.737 59.3281C336.221 57.3906 339.339 56.4219 343.089 56.4219C346.229 56.4219 349.089 57.2578 351.667 58.9297L349.464 62.1406C348.198 61.0625 346.596 60.1406 344.659 59.375C342.721 58.5938 340.768 58.2031 338.8 58.2031C337.159 58.2031 335.839 58.6016 334.839 59.3984C333.714 60.3203 333.151 61.6406 333.151 63.3594C333.151 64.7188 333.432 65.8672 333.995 66.8047C335.01 68.4297 336.854 69.7656 339.526 70.8125C340.714 71.2656 341.94 71.6953 343.206 72.1016C346.393 73.1172 348.698 74.1016 350.12 75.0547C352.214 76.4453 353.26 78.3672 353.26 80.8203C353.26 83.7734 351.885 86.1797 349.135 88.0391C346.385 89.8984 342.901 90.8281 338.682 90.8281Z" fill="black"/>
<defs>
<filter id="filter0_d_410_621" x="23.4364" y="9.22424" width="130.127" height="139.526" filterUnits="userSpaceOnUse" color-interpolation-filters="sRGB">
<feFlood flood-opacity="0" result="BackgroundImageFix"/>
<feColorMatrix in="SourceAlpha" type="matrix" values="0 0 0 0 0 0 0 0 0 0 0 0 0 0 0 0 0 0 127 0" result="hardAlpha"/>
<feOffset dx="2" dy="4"/>
<feGaussianBlur stdDeviation="2"/>
<feComposite in2="hardAlpha" operator="out"/>
<feColorMatrix type="matrix" values="0 0 0 0 0 0 0 0 0 0 0 0 0 0 0 0 0 0 0.25 0"/>
<feBlend mode="normal" in2="BackgroundImageFix" result="effect1_dropShadow_410_621"/>
<feBlend mode="normal" in="SourceGraphic" in2="effect1_dropShadow_410_621" result="shape"/>
</filter>
<filter id="filter1_d_410_621" x="23.4364" y="8.25" width="130" height="139.526" filterUnits="userSpaceOnUse" color-interpolation-filters="sRGB">
<feFlood flood-opacity="0" result="BackgroundImageFix"/>
<feColorMatrix in="SourceAlpha" type="matrix" values="0 0 0 0 0 0 0 0 0 0 0 0 0 0 0 0 0 0 127 0" result="hardAlpha"/>
<feOffset dx="2" dy="4"/>
<feGaussianBlur stdDeviation="2"/>
<feComposite in2="hardAlpha" operator="out"/>
<feColorMatrix type="matrix" values="0 0 0 0 0 0 0 0 0 0 0 0 0 0 0 0 0 0 0.25 0"/>
<feBlend mode="normal" in2="BackgroundImageFix" result="effect1_dropShadow_410_621"/>
<feBlend mode="normal" in="SourceGraphic" in2="effect1_dropShadow_410_621" result="shape"/>
</filter>
</defs>
</svg>
