<svg width="348" height="69" viewBox="0 0 348 69" fill="none" xmlns="http://www.w3.org/2000/svg">
<g clip-path="url(#clip0_402_5283)">
<path d="M33.2882 0C33.2807 0 33.147 0.0018616 33.0837 0.00372319V7.15164C33.0884 7.15164 33.0903 7.24268 33.093 7.24268V27.9183H40.7721V8.17126C53.0552 11.2922 62.1014 21.9121 62.1014 34.5348C62.1014 45.9096 54.7521 55.6582 44.3092 59.7584V67.4574C59.0531 63.0305 69.7405 49.9657 69.7405 34.5348C69.7406 15.4599 53.4196 0 33.2882 0Z" fill="#8F7242"/>
<path d="M30.3772 7.71685V0.449707C13.296 2.31441 0 16.9021 0 34.6221C0 53.4894 15.0748 68.8038 33.7414 68.9925V68.9981C33.8018 68.9981 33.8613 69 33.9226 69C36.3045 69 38.6279 68.7521 40.8723 68.2836V60.8785C38.6558 61.4756 36.3259 61.7939 33.9226 61.7939C33.9161 61.7939 33.9022 61.7892 33.9022 61.7892C20.3702 61.6982 9.20875 51.5449 7.40217 38.3786H40.9364V31.1359H7.36404C8.9067 19.0053 18.3832 9.38528 30.3772 7.71685Z" fill="#8F7242"/>
<path d="M135.26 31.7583C135.26 26.3786 135.26 25.4142 135.168 24.3092C135.078 23.1369 134.713 22.5856 133.213 22.3449C132.849 22.2752 132.074 22.2422 131.664 22.2422C131.484 22.2422 131.302 22.1724 131.302 22.0343C131.302 21.8264 131.53 21.7568 132.029 21.7568C133.075 21.7568 134.303 21.7569 135.306 21.7936L137.169 21.862C137.487 21.862 146.542 21.862 147.588 21.8266C148.454 21.7936 149.181 21.7238 149.543 21.6542C149.772 21.6212 149.953 21.4831 150.182 21.4831C150.318 21.4831 150.362 21.6212 150.362 21.7936C150.362 22.0344 150.135 22.4475 150 23.4144C149.953 23.7579 149.862 25.2761 149.771 25.6893C149.725 25.8616 149.635 26.0694 149.453 26.0694C149.181 26.0694 149.09 25.8971 149.09 25.6196C149.09 25.3788 149.044 24.7921 148.816 24.3789C148.497 23.8276 148.044 23.4144 145.586 23.2067C144.813 23.1369 139.854 23.1039 139.353 23.1039C139.172 23.1039 139.08 23.2067 139.08 23.4474V32.9661C139.08 33.2068 139.125 33.3096 139.353 33.3096C139.945 33.3096 145.54 33.3096 146.587 33.2435C147.678 33.1738 148.314 33.1042 148.723 32.7582C149.044 32.4844 149.224 32.3121 149.407 32.3121C149.543 32.3121 149.635 32.3793 149.635 32.5871C149.635 32.7948 149.407 33.3792 149.273 34.5184C149.181 35.2079 149.09 36.4827 149.09 36.726C149.09 37.001 149.09 37.3799 148.771 37.3799C148.543 37.3799 148.454 37.2418 148.454 37.0706C148.454 36.7259 148.454 36.38 148.271 35.9314C148.088 35.4485 147.678 34.8643 145.905 34.7261C144.677 34.6234 140.172 34.5538 139.398 34.5538C139.172 34.5538 139.08 34.6565 139.08 34.7946V37.8298C139.08 39.002 139.035 43.0029 139.08 43.7265C139.216 46.1064 139.899 46.5526 144.358 46.5526C145.54 46.5526 147.542 46.5526 148.723 46.1761C149.908 45.796 150.453 45.1065 150.77 43.6935C150.862 43.3133 150.953 43.1752 151.182 43.1752C151.454 43.1752 151.454 43.4489 151.454 43.6935C151.454 43.9673 151.09 46.3118 150.862 47.0379C150.544 47.9327 150.181 47.9327 148.406 47.9327C144.994 47.9327 142.491 47.8642 140.718 47.83C138.943 47.7615 137.852 47.7273 137.168 47.7273C137.078 47.7273 136.306 47.7273 135.35 47.7615C134.44 47.7615 133.393 47.83 132.711 47.83C132.211 47.83 131.983 47.7615 131.983 47.5537C131.983 47.451 132.073 47.3484 132.347 47.3484C132.757 47.3484 133.301 47.2786 133.713 47.2091C134.622 47.0709 134.849 46.3118 135.031 45.3119C135.259 43.8647 135.259 41.1412 135.259 37.8298L135.26 31.7583Z" fill="#8F7242"/>
<path d="M155.758 31.7583C155.758 26.3786 155.758 25.4143 155.689 24.3092C155.621 23.137 155.349 22.5856 154.222 22.3449C153.949 22.2752 153.369 22.2422 153.061 22.2422C152.925 22.2422 152.788 22.1725 152.788 22.0343C152.788 21.8265 152.958 21.7569 153.335 21.7569C154.87 21.7569 157.021 21.862 157.192 21.862C157.601 21.862 159.752 21.7569 161.8 21.7569C165.18 21.7569 171.426 21.4464 175.489 25.6893C177.197 27.4826 178.8 30.3453 178.8 34.4488C178.8 38.7944 177.025 42.1388 175.113 44.1752C173.644 45.7276 170.572 48.1407 164.77 48.1407C163.302 48.1407 161.493 48.038 160.025 47.9328C158.523 47.8301 157.362 47.7275 157.192 47.7275C157.124 47.7275 156.542 47.7275 155.827 47.7618C155.143 47.7618 154.359 47.8302 153.846 47.8302C153.47 47.8302 153.301 47.7618 153.301 47.5539C153.301 47.4512 153.368 47.3486 153.573 47.3486C153.88 47.3486 154.29 47.2789 154.598 47.2093C155.28 47.0711 155.451 46.3121 155.588 45.3122C155.758 43.8649 155.758 41.1414 155.758 37.83V31.7583ZM158.626 35.4853C158.626 39.1402 158.66 42.3135 158.694 42.9675C158.729 43.8292 158.798 45.2093 159.069 45.5882C159.513 46.2421 160.844 46.9683 164.873 46.9683C168.046 46.9683 170.983 45.7961 172.997 43.7595C174.772 42.003 175.728 38.6916 175.728 35.5183C175.728 31.1373 173.85 28.3112 172.451 26.8285C169.242 23.4144 165.35 22.9291 161.288 22.9291C160.605 22.9291 159.343 23.0342 159.069 23.1724C158.761 23.3093 158.66 23.4828 158.66 23.8606C158.626 25.0352 158.626 28.5521 158.626 31.2071V35.4853Z" fill="#8F7242"/>
<path d="M182.545 31.7583C182.545 26.3786 182.545 25.4143 182.476 24.3092C182.408 23.137 182.136 22.5856 181.009 22.3449C180.734 22.2752 180.155 22.2422 179.849 22.2422C179.711 22.2422 179.574 22.1725 179.574 22.0343C179.574 21.8265 179.745 21.7569 180.12 21.7569C181.656 21.7569 183.806 21.862 183.978 21.862C184.387 21.862 186.537 21.7569 188.587 21.7569C191.966 21.7569 198.212 21.4464 202.273 25.6893C203.982 27.4826 205.585 30.3453 205.585 34.4488C205.585 38.7944 203.81 42.1388 201.898 44.1752C200.431 45.7276 197.359 48.1407 191.555 48.1407C190.087 48.1407 188.279 48.038 186.812 47.9328C185.309 47.8301 184.149 47.7275 183.978 47.7275C183.909 47.7275 183.328 47.7275 182.613 47.7618C181.93 47.7618 181.146 47.8302 180.633 47.8302C180.256 47.8302 180.087 47.7618 180.087 47.5539C180.087 47.4512 180.155 47.3486 180.358 47.3486C180.665 47.3486 181.077 47.2789 181.384 47.2093C182.068 47.0711 182.237 46.3121 182.374 45.3122C182.544 43.8649 182.544 41.1414 182.544 37.83L182.545 31.7583ZM185.411 35.4853C185.411 39.1402 185.446 42.3135 185.479 42.9675C185.515 43.8292 185.583 45.2093 185.855 45.5882C186.299 46.2421 187.63 46.9683 191.659 46.9683C194.833 46.9683 197.768 45.7961 199.784 43.7595C201.557 42.003 202.512 38.6916 202.512 35.5183C202.512 31.1373 200.637 28.3112 199.237 26.8285C196.028 23.4144 192.136 22.9291 188.074 22.9291C187.39 22.9291 186.128 23.0342 185.855 23.1724C185.548 23.3093 185.446 23.4828 185.446 23.8606C185.411 25.0352 185.411 28.5521 185.411 31.2071L185.411 35.4853Z" fill="#8F7242"/>
<path d="M214.671 38.8994C214.671 37.0365 214.328 36.2774 213.887 35.2775C213.646 34.7262 209.072 27.1389 207.877 25.3458C207.024 24.0684 206.171 23.2066 205.556 22.7935C205.043 22.4476 204.396 22.2421 204.089 22.2421C203.919 22.2421 203.746 22.1724 203.746 21.9977C203.746 21.862 203.883 21.7569 204.19 21.7569C204.84 21.7569 207.4 21.8621 207.57 21.8621C207.808 21.8621 209.106 21.7569 210.438 21.7569C210.812 21.7569 210.88 21.8621 210.88 21.9977C210.88 22.137 210.678 22.1725 210.37 22.3082C210.096 22.4475 209.925 22.6553 209.925 22.9291C209.925 23.3447 210.096 23.7578 210.37 24.2762C210.916 25.2761 216.037 34.1737 216.651 35.1748C217.298 33.7251 221.635 26.172 222.318 25.0352C222.76 24.3092 222.897 23.7248 222.897 23.275C222.897 22.7933 222.76 22.4132 222.351 22.308C222.044 22.2053 221.838 22.1369 221.838 21.9646C221.838 21.8264 222.044 21.7567 222.384 21.7567C223.273 21.7567 224.364 21.8619 224.639 21.8619C224.845 21.8619 227.302 21.7567 227.949 21.7567C228.188 21.7567 228.393 21.8264 228.393 21.9646C228.393 22.1369 228.223 22.242 227.949 22.242C227.573 22.242 226.926 22.3777 226.38 22.7236C225.698 23.1368 225.321 23.55 224.57 24.4814C223.442 25.8614 218.664 33.9658 218.05 35.4485C217.537 36.6904 217.537 37.7599 217.537 38.8993V41.8635C217.537 42.416 217.537 43.8645 217.641 45.3118C217.707 46.3117 218.015 47.0708 219.041 47.2089C219.518 47.2786 220.269 47.3482 220.576 47.3482C220.782 47.3482 220.848 47.4509 220.848 47.5535C220.848 47.7271 220.678 47.8298 220.303 47.8298C218.426 47.8298 216.275 47.7271 216.106 47.7271C215.933 47.7271 213.783 47.8298 212.759 47.8298C212.384 47.8298 212.213 47.7614 212.213 47.5535C212.213 47.4508 212.282 47.3482 212.485 47.3482C212.793 47.3482 213.203 47.2785 213.51 47.2089C214.194 47.0708 214.501 46.3117 214.567 45.3118C214.671 43.8645 214.671 42.416 214.671 41.8635V38.8994Z" fill="#8F7242"/>
<path d="M237.334 31.7583C237.334 26.518 237.334 25.5511 237.265 24.4473C237.196 23.2751 236.925 22.7238 235.797 22.483C235.526 22.4133 234.944 22.3779 234.467 22.3779C234.091 22.3779 233.885 22.3082 233.885 22.0674C233.885 21.8267 234.124 21.757 234.637 21.757C236.447 21.757 238.598 21.8621 239.553 21.8621C240.611 21.8621 242.761 21.757 244.81 21.757C249.076 21.757 254.778 21.757 258.497 25.6894C260.206 27.4826 261.808 30.3454 261.808 34.4489C261.808 38.7945 260 42.1059 258.089 44.0702C256.517 45.691 252.968 48.1406 246.654 48.1406C245.424 48.1406 244.023 48.0379 242.729 47.9328C241.43 47.8301 240.235 47.7275 239.382 47.7275C239.007 47.7275 238.254 47.7275 237.435 47.7617C236.65 47.7617 235.764 47.8302 235.081 47.8302C234.637 47.8302 234.398 47.7275 234.398 47.4867C234.398 47.3119 234.535 47.2093 234.944 47.2093C235.457 47.2093 235.866 47.1408 236.173 47.0711C236.856 46.933 237.026 46.1763 237.163 45.1753C237.334 43.7267 237.334 41.0021 237.334 37.83L237.334 31.7583ZM241.601 35.5537C241.601 39.2099 241.634 41.8636 241.67 42.5188C241.703 43.383 241.772 44.7607 242.045 45.1396C242.488 45.7961 243.82 46.5197 246.517 46.5197C249.998 46.5197 252.32 45.8302 254.367 44.0371C256.553 42.1388 257.236 39.0021 257.236 35.4487C257.236 31.0701 255.426 28.2416 253.958 26.8285C250.817 23.7933 246.926 23.3777 244.264 23.3777C243.582 23.3777 242.317 23.4828 242.045 23.6197C241.738 23.7579 241.634 23.9302 241.634 24.3092C241.601 25.4814 241.601 28.4823 241.601 31.207V35.5537Z" fill="#8F7242"/>
<path d="M263.808 34.7947C263.808 28.8956 267.666 21.2753 277.906 21.2753C286.405 21.2753 291.696 26.2761 291.696 34.1738C291.696 42.0715 286.236 48.313 277.566 48.313C267.768 48.313 263.808 40.8969 263.808 34.7947ZM286.919 35.4486C286.919 27.7232 282.514 22.9291 276.916 22.9291C272.99 22.9291 268.519 25.138 268.519 33.7252C268.519 40.8969 272.444 46.5894 279 46.5894C281.389 46.5894 286.919 45.4171 286.919 35.4486Z" fill="#8F7242"/>
<path d="M297.778 43.1386C297.845 45.8302 298.29 46.7274 298.973 46.9683C299.553 47.1761 300.202 47.209 300.748 47.209C301.123 47.209 301.329 47.2787 301.329 47.4865C301.329 47.7615 301.021 47.83 300.542 47.83C298.323 47.83 296.96 47.7272 296.31 47.7272C296.003 47.7272 294.398 47.83 292.623 47.83C292.179 47.83 291.872 47.7969 291.872 47.4865C291.872 47.2786 292.078 47.209 292.418 47.209C292.862 47.209 293.476 47.176 293.954 47.0379C294.842 46.7604 294.979 45.7605 295.013 42.762L295.32 22.3446C295.32 21.654 295.422 21.1724 295.764 21.1724C296.139 21.1724 296.447 21.621 297.026 22.242C297.438 22.6882 302.625 28.3111 307.608 33.3094C309.931 35.6564 314.539 40.623 315.118 41.1742H315.29L314.948 25.6891C314.915 23.5854 314.608 22.9291 313.787 22.5855C313.274 22.3776 312.457 22.3776 311.977 22.3776C311.568 22.3776 311.431 22.2749 311.431 22.0672C311.431 21.7933 311.808 21.7567 312.319 21.7567C314.094 21.7567 315.733 21.8619 316.45 21.8619C316.826 21.8619 318.123 21.7567 319.794 21.7567C320.238 21.7567 320.581 21.7934 320.581 22.0672C320.581 22.275 320.376 22.3776 319.967 22.3776C319.624 22.3776 319.353 22.3776 318.941 22.4828C317.987 22.7578 317.712 23.4827 317.679 25.414L317.303 47.1759C317.303 47.9326 317.166 48.243 316.859 48.243C316.484 48.243 316.075 47.8641 315.699 47.4864C313.549 45.4169 309.18 40.8966 305.63 37.3468C301.908 33.6198 298.12 29.3109 297.505 28.6544H297.401L297.778 43.1386Z" fill="#8F7242"/>
<path d="M329.013 38.8297C328.843 38.8297 328.774 38.8994 328.705 39.1047L326.863 44.037C326.523 44.8988 326.35 45.7275 326.35 46.1394C326.35 46.7604 326.657 47.2091 327.716 47.2091H328.229C328.638 47.2091 328.742 47.2788 328.742 47.4865C328.742 47.7615 328.536 47.83 328.16 47.83C327.068 47.83 325.601 47.7273 324.542 47.7273C324.166 47.7273 322.288 47.83 320.513 47.83C320.069 47.83 319.866 47.7615 319.866 47.4865C319.866 47.2787 320.002 47.2091 320.275 47.2091C320.581 47.2091 321.059 47.1761 321.333 47.1406C322.901 46.9328 323.552 45.7605 324.235 44.037L332.803 22.3777C333.212 21.3777 333.418 21 333.758 21C334.065 21 334.271 21.3105 334.611 22.1026C335.431 23.9985 340.893 38.0705 343.078 43.3132C344.374 46.4169 345.363 46.8997 346.082 47.0708C346.593 47.1759 347.105 47.209 347.514 47.209C347.788 47.209 347.958 47.2432 347.958 47.4864C347.958 47.7614 347.652 47.8299 346.39 47.8299C345.16 47.8299 342.667 47.8299 339.938 47.7614C339.324 47.7272 338.912 47.7272 338.912 47.4864C338.912 47.2785 339.049 47.209 339.389 47.1759C339.631 47.1062 339.869 46.7971 339.696 46.3815L336.967 39.0705C336.899 38.8993 336.797 38.8297 336.624 38.8297H329.013ZM335.977 37.1037C336.148 37.1037 336.183 37.001 336.148 36.8984L333.076 28.3797C333.042 28.2415 333.007 28.0692 332.905 28.0692C332.803 28.0692 332.734 28.2415 332.699 28.3797L329.558 36.8629C329.526 37.001 329.558 37.1036 329.696 37.1036L335.977 37.1037Z" fill="#8F7242"/>
<path d="M79.9222 31.7583C79.9222 26.518 79.9222 25.5511 79.8544 24.4473C79.7854 23.2751 79.5119 22.7238 78.3855 22.483C78.1133 22.4133 77.5313 22.3779 77.0546 22.3779C76.6783 22.3779 76.4738 22.3082 76.4738 22.0674C76.4738 21.8267 76.7134 21.757 77.2239 21.757C79.034 21.757 81.1851 21.8621 82.141 21.8621C83.1985 21.8621 85.3485 21.757 87.3969 21.757C91.6655 21.757 97.3655 21.757 101.085 25.6894C102.793 27.4826 104.397 30.3454 104.397 34.4489C104.397 38.7945 102.587 42.1059 100.676 44.0702C99.1064 45.691 95.5566 48.1406 89.2408 48.1406C88.0115 48.1406 86.6128 48.0379 85.3158 47.9328C84.0175 47.8301 82.8233 47.7275 81.9691 47.7275C81.5928 47.7275 80.8427 47.7275 80.0248 47.7617C79.2383 47.7617 78.3515 47.8302 77.6678 47.8302C77.2238 47.8302 76.9854 47.7275 76.9854 47.4867C76.9854 47.3119 77.1221 47.2093 77.5312 47.2093C78.0442 47.2093 78.4543 47.1408 78.7617 47.0711C79.4428 46.933 79.6147 46.1763 79.7502 45.1753C79.922 43.7267 79.922 41.0021 79.922 37.83L79.9222 31.7583ZM84.1883 35.5537C84.1883 39.2099 84.2234 41.8636 84.2574 42.5188C84.2912 43.383 84.3602 44.7607 84.6324 45.1396C85.0764 45.7961 86.4074 46.5197 89.1043 46.5197C92.5864 46.5197 94.9071 45.8302 96.9566 44.0371C99.1393 42.1388 99.8217 39.0021 99.8217 35.4487C99.8217 31.0701 98.0129 28.2416 96.5464 26.8285C93.4055 23.7933 89.5143 23.3777 86.8513 23.3777C86.1689 23.3777 84.9057 23.4828 84.6323 23.6197C84.3249 23.7579 84.2233 23.9302 84.2233 24.3092C84.1882 25.4814 84.1882 28.4823 84.1882 31.207L84.1883 35.5537Z" fill="#8F7242"/>
<path d="M107.802 35.6906C107.728 31.6727 107.714 30.9307 107.647 30.0849C107.578 29.1852 107.36 28.7696 106.489 28.5996C106.277 28.5507 105.83 28.5312 105.463 28.5373C105.174 28.5434 105.014 28.4933 105.012 28.3087C105.008 28.1229 105.191 28.0666 105.585 28.0581C106.978 28.0336 108.634 28.0837 109.187 28.0728C110.08 28.0568 112.075 27.9383 112.891 27.9224C114.545 27.8931 116.308 28.019 117.746 28.97C118.492 29.4601 119.566 30.7889 119.599 32.5588C119.634 34.517 118.852 36.3299 116.237 38.5485C118.632 41.465 120.488 43.7863 122.068 45.395C123.567 46.9022 124.648 47.066 125.043 47.1406C125.334 47.1883 125.57 47.2091 125.78 47.2054C125.991 47.2017 126.097 47.2775 126.1 47.412C126.104 47.6234 125.92 47.6784 125.606 47.6846L123.11 47.731C121.637 47.7591 120.978 47.6393 120.288 47.2823C119.149 46.6944 118.126 45.4696 116.617 43.4612C115.539 42.0286 114.298 40.25 113.95 39.8613C113.815 39.7048 113.657 39.6791 113.473 39.6828L111.186 39.6743C111.055 39.6767 110.977 39.7293 110.98 39.8894L110.986 40.2598C111.031 42.7192 111.07 44.8083 111.222 45.9169C111.313 46.6821 111.483 47.259 112.273 47.3508C112.668 47.3972 113.248 47.4388 113.562 47.4327C113.773 47.4279 113.878 47.5049 113.882 47.6393C113.884 47.8239 113.703 47.9071 113.36 47.9131C111.837 47.9412 109.892 47.8996 109.497 47.907C108.997 47.9168 107.343 48.0255 106.293 48.0451C105.951 48.0512 105.767 47.9767 105.763 47.7921C105.761 47.6577 105.864 47.5757 106.178 47.5709C106.574 47.5635 106.887 47.5061 107.123 47.4474C107.647 47.3313 107.767 46.7494 107.859 45.9805C107.969 44.8669 107.931 42.7767 107.887 40.3429L107.802 35.6906ZM110.94 37.721C110.944 38.0131 111 38.1182 111.186 38.1928C111.741 38.3688 112.529 38.4323 113.187 38.4201C114.237 38.3993 114.577 38.2894 115.044 37.9372C115.822 37.3382 116.56 36.1085 116.522 33.9401C116.453 30.1838 113.964 29.1459 112.414 29.1764C111.756 29.1874 111.285 29.2241 111.023 29.3072C110.84 29.3647 110.789 29.4698 110.793 29.6825L110.94 37.721Z" fill="#8F7242"/>
<mask id="mask0_402_5283" style="mask-type:alpha" maskUnits="userSpaceOnUse" x="0" y="0" width="348" height="69">
<path d="M33.2882 0C33.2807 0 33.147 0.0018616 33.0837 0.00372319V7.15164C33.0884 7.15164 33.0903 7.24268 33.093 7.24268V27.9183H40.7721V8.17126C53.0552 11.2922 62.1014 21.9121 62.1014 34.5348C62.1014 45.9096 54.7521 55.6582 44.3092 59.7584V67.4574C59.0531 63.0305 69.7405 49.9657 69.7405 34.5348C69.7406 15.4599 53.4196 0 33.2882 0Z" fill="#8F7242"/>
<path d="M30.3772 7.71685V0.449707C13.296 2.31441 0 16.9021 0 34.6221C0 53.4894 15.0748 68.8038 33.7414 68.9925V68.9981C33.8018 68.9981 33.8613 69 33.9226 69C36.3045 69 38.6279 68.7521 40.8723 68.2836V60.8785C38.6558 61.4756 36.3259 61.7939 33.9226 61.7939C33.9161 61.7939 33.9022 61.7892 33.9022 61.7892C20.3702 61.6982 9.20875 51.5449 7.40217 38.3786H40.9364V31.1359H7.36404C8.9067 19.0053 18.3832 9.38528 30.3772 7.71685Z" fill="#8F7242"/>
<path d="M135.26 31.7583C135.26 26.3786 135.26 25.4142 135.168 24.3092C135.078 23.1369 134.713 22.5856 133.213 22.3449C132.849 22.2752 132.074 22.2422 131.664 22.2422C131.484 22.2422 131.302 22.1724 131.302 22.0343C131.302 21.8264 131.53 21.7568 132.029 21.7568C133.075 21.7568 134.303 21.7569 135.306 21.7936L137.169 21.862C137.487 21.862 146.542 21.862 147.588 21.8266C148.454 21.7936 149.181 21.7238 149.543 21.6542C149.772 21.6212 149.953 21.4831 150.182 21.4831C150.318 21.4831 150.362 21.6212 150.362 21.7936C150.362 22.0344 150.135 22.4475 150 23.4144C149.953 23.7579 149.862 25.2761 149.771 25.6893C149.725 25.8616 149.635 26.0694 149.453 26.0694C149.181 26.0694 149.09 25.8971 149.09 25.6196C149.09 25.3788 149.044 24.7921 148.816 24.3789C148.497 23.8276 148.044 23.4144 145.586 23.2067C144.813 23.1369 139.854 23.1039 139.353 23.1039C139.172 23.1039 139.08 23.2067 139.08 23.4474V32.9661C139.08 33.2068 139.125 33.3096 139.353 33.3096C139.945 33.3096 145.54 33.3096 146.587 33.2435C147.678 33.1738 148.314 33.1042 148.723 32.7582C149.044 32.4844 149.224 32.3121 149.407 32.3121C149.543 32.3121 149.635 32.3793 149.635 32.5871C149.635 32.7948 149.407 33.3792 149.273 34.5184C149.181 35.2079 149.09 36.4827 149.09 36.726C149.09 37.001 149.09 37.3799 148.771 37.3799C148.543 37.3799 148.454 37.2418 148.454 37.0706C148.454 36.7259 148.454 36.38 148.271 35.9314C148.088 35.4485 147.678 34.8643 145.905 34.7261C144.677 34.6234 140.172 34.5538 139.398 34.5538C139.172 34.5538 139.08 34.6565 139.08 34.7946V37.8298C139.08 39.002 139.035 43.0029 139.08 43.7265C139.216 46.1064 139.899 46.5526 144.358 46.5526C145.54 46.5526 147.542 46.5526 148.723 46.1761C149.908 45.796 150.453 45.1065 150.77 43.6935C150.862 43.3133 150.953 43.1752 151.182 43.1752C151.454 43.1752 151.454 43.4489 151.454 43.6935C151.454 43.9673 151.09 46.3118 150.862 47.0379C150.544 47.9327 150.181 47.9327 148.406 47.9327C144.994 47.9327 142.491 47.8642 140.718 47.83C138.943 47.7615 137.852 47.7273 137.168 47.7273C137.078 47.7273 136.306 47.7273 135.35 47.7615C134.44 47.7615 133.393 47.83 132.711 47.83C132.211 47.83 131.983 47.7615 131.983 47.5537C131.983 47.451 132.073 47.3484 132.347 47.3484C132.757 47.3484 133.301 47.2786 133.713 47.2091C134.622 47.0709 134.849 46.3118 135.031 45.3119C135.259 43.8647 135.259 41.1412 135.259 37.8298L135.26 31.7583Z" fill="#8F7242"/>
<path d="M155.758 31.7583C155.758 26.3786 155.758 25.4143 155.689 24.3092C155.621 23.137 155.349 22.5856 154.222 22.3449C153.949 22.2752 153.369 22.2422 153.061 22.2422C152.925 22.2422 152.788 22.1725 152.788 22.0343C152.788 21.8265 152.958 21.7569 153.335 21.7569C154.87 21.7569 157.021 21.862 157.192 21.862C157.601 21.862 159.752 21.7569 161.8 21.7569C165.18 21.7569 171.426 21.4464 175.489 25.6893C177.197 27.4826 178.8 30.3453 178.8 34.4488C178.8 38.7944 177.025 42.1388 175.113 44.1752C173.644 45.7276 170.572 48.1407 164.77 48.1407C163.302 48.1407 161.493 48.038 160.025 47.9328C158.523 47.8301 157.362 47.7275 157.192 47.7275C157.124 47.7275 156.542 47.7275 155.827 47.7618C155.143 47.7618 154.359 47.8302 153.846 47.8302C153.47 47.8302 153.301 47.7618 153.301 47.5539C153.301 47.4512 153.368 47.3486 153.573 47.3486C153.88 47.3486 154.29 47.2789 154.598 47.2093C155.28 47.0711 155.451 46.3121 155.588 45.3122C155.758 43.8649 155.758 41.1414 155.758 37.83V31.7583ZM158.626 35.4853C158.626 39.1402 158.66 42.3135 158.694 42.9675C158.729 43.8292 158.798 45.2093 159.069 45.5882C159.513 46.2421 160.844 46.9683 164.873 46.9683C168.046 46.9683 170.983 45.7961 172.997 43.7595C174.772 42.003 175.728 38.6916 175.728 35.5183C175.728 31.1373 173.85 28.3112 172.451 26.8285C169.242 23.4144 165.35 22.9291 161.288 22.9291C160.605 22.9291 159.343 23.0342 159.069 23.1724C158.761 23.3093 158.66 23.4828 158.66 23.8606C158.626 25.0352 158.626 28.5521 158.626 31.2071V35.4853Z" fill="#8F7242"/>
<path d="M182.545 31.7583C182.545 26.3786 182.545 25.4143 182.476 24.3092C182.408 23.137 182.136 22.5856 181.009 22.3449C180.734 22.2752 180.155 22.2422 179.849 22.2422C179.711 22.2422 179.574 22.1725 179.574 22.0343C179.574 21.8265 179.745 21.7569 180.12 21.7569C181.656 21.7569 183.806 21.862 183.978 21.862C184.387 21.862 186.537 21.7569 188.587 21.7569C191.966 21.7569 198.212 21.4464 202.273 25.6893C203.982 27.4826 205.585 30.3453 205.585 34.4488C205.585 38.7944 203.81 42.1388 201.898 44.1752C200.431 45.7276 197.359 48.1407 191.555 48.1407C190.087 48.1407 188.279 48.038 186.812 47.9328C185.309 47.8301 184.149 47.7275 183.978 47.7275C183.909 47.7275 183.328 47.7275 182.613 47.7618C181.93 47.7618 181.146 47.8302 180.633 47.8302C180.256 47.8302 180.087 47.7618 180.087 47.5539C180.087 47.4512 180.155 47.3486 180.358 47.3486C180.665 47.3486 181.077 47.2789 181.384 47.2093C182.068 47.0711 182.237 46.3121 182.374 45.3122C182.544 43.8649 182.544 41.1414 182.544 37.83L182.545 31.7583ZM185.411 35.4853C185.411 39.1402 185.446 42.3135 185.479 42.9675C185.515 43.8292 185.583 45.2093 185.855 45.5882C186.299 46.2421 187.63 46.9683 191.659 46.9683C194.833 46.9683 197.768 45.7961 199.784 43.7595C201.557 42.003 202.512 38.6916 202.512 35.5183C202.512 31.1373 200.637 28.3112 199.237 26.8285C196.028 23.4144 192.136 22.9291 188.074 22.9291C187.39 22.9291 186.128 23.0342 185.855 23.1724C185.548 23.3093 185.446 23.4828 185.446 23.8606C185.411 25.0352 185.411 28.5521 185.411 31.2071L185.411 35.4853Z" fill="#8F7242"/>
<path d="M214.671 38.8994C214.671 37.0365 214.328 36.2774 213.887 35.2775C213.646 34.7262 209.072 27.1389 207.877 25.3458C207.024 24.0684 206.171 23.2066 205.556 22.7935C205.043 22.4476 204.396 22.2421 204.089 22.2421C203.919 22.2421 203.746 22.1724 203.746 21.9977C203.746 21.862 203.883 21.7569 204.19 21.7569C204.84 21.7569 207.4 21.8621 207.57 21.8621C207.808 21.8621 209.106 21.7569 210.438 21.7569C210.812 21.7569 210.88 21.8621 210.88 21.9977C210.88 22.137 210.678 22.1725 210.37 22.3082C210.096 22.4475 209.925 22.6553 209.925 22.9291C209.925 23.3447 210.096 23.7578 210.37 24.2762C210.916 25.2761 216.037 34.1737 216.651 35.1748C217.298 33.7251 221.635 26.172 222.318 25.0352C222.76 24.3092 222.897 23.7248 222.897 23.275C222.897 22.7933 222.76 22.4132 222.351 22.308C222.044 22.2053 221.838 22.1369 221.838 21.9646C221.838 21.8264 222.044 21.7567 222.384 21.7567C223.273 21.7567 224.364 21.8619 224.639 21.8619C224.845 21.8619 227.302 21.7567 227.949 21.7567C228.188 21.7567 228.393 21.8264 228.393 21.9646C228.393 22.1369 228.223 22.242 227.949 22.242C227.573 22.242 226.926 22.3777 226.38 22.7236C225.698 23.1368 225.321 23.55 224.57 24.4814C223.442 25.8614 218.664 33.9658 218.05 35.4485C217.537 36.6904 217.537 37.7599 217.537 38.8993V41.8635C217.537 42.416 217.537 43.8645 217.641 45.3118C217.707 46.3117 218.015 47.0708 219.041 47.2089C219.518 47.2786 220.269 47.3482 220.576 47.3482C220.782 47.3482 220.848 47.4509 220.848 47.5535C220.848 47.7271 220.678 47.8298 220.303 47.8298C218.426 47.8298 216.275 47.7271 216.106 47.7271C215.933 47.7271 213.783 47.8298 212.759 47.8298C212.384 47.8298 212.213 47.7614 212.213 47.5535C212.213 47.4508 212.282 47.3482 212.485 47.3482C212.793 47.3482 213.203 47.2785 213.51 47.2089C214.194 47.0708 214.501 46.3117 214.567 45.3118C214.671 43.8645 214.671 42.416 214.671 41.8635V38.8994Z" fill="#8F7242"/>
<path d="M237.334 31.7583C237.334 26.518 237.334 25.5511 237.265 24.4473C237.196 23.2751 236.925 22.7238 235.797 22.483C235.526 22.4133 234.944 22.3779 234.467 22.3779C234.091 22.3779 233.885 22.3082 233.885 22.0674C233.885 21.8267 234.124 21.757 234.637 21.757C236.447 21.757 238.598 21.8621 239.553 21.8621C240.611 21.8621 242.761 21.757 244.81 21.757C249.076 21.757 254.778 21.757 258.497 25.6894C260.206 27.4826 261.808 30.3454 261.808 34.4489C261.808 38.7945 260 42.1059 258.089 44.0702C256.517 45.691 252.968 48.1406 246.654 48.1406C245.424 48.1406 244.023 48.0379 242.729 47.9328C241.43 47.8301 240.235 47.7275 239.382 47.7275C239.007 47.7275 238.254 47.7275 237.435 47.7617C236.65 47.7617 235.764 47.8302 235.081 47.8302C234.637 47.8302 234.398 47.7275 234.398 47.4867C234.398 47.3119 234.535 47.2093 234.944 47.2093C235.457 47.2093 235.866 47.1408 236.173 47.0711C236.856 46.933 237.026 46.1763 237.163 45.1753C237.334 43.7267 237.334 41.0021 237.334 37.83L237.334 31.7583ZM241.601 35.5537C241.601 39.2099 241.634 41.8636 241.67 42.5188C241.703 43.383 241.772 44.7607 242.045 45.1396C242.488 45.7961 243.82 46.5197 246.517 46.5197C249.998 46.5197 252.32 45.8302 254.367 44.0371C256.553 42.1388 257.236 39.0021 257.236 35.4487C257.236 31.0701 255.426 28.2416 253.958 26.8285C250.817 23.7933 246.926 23.3777 244.264 23.3777C243.582 23.3777 242.317 23.4828 242.045 23.6197C241.738 23.7579 241.634 23.9302 241.634 24.3092C241.601 25.4814 241.601 28.4823 241.601 31.207V35.5537Z" fill="#8F7242"/>
<path d="M263.808 34.7947C263.808 28.8956 267.666 21.2753 277.906 21.2753C286.405 21.2753 291.696 26.2761 291.696 34.1738C291.696 42.0715 286.236 48.313 277.566 48.313C267.768 48.313 263.808 40.8969 263.808 34.7947ZM286.919 35.4486C286.919 27.7232 282.514 22.9291 276.916 22.9291C272.99 22.9291 268.519 25.138 268.519 33.7252C268.519 40.8969 272.444 46.5894 279 46.5894C281.389 46.5894 286.919 45.4171 286.919 35.4486Z" fill="#8F7242"/>
<path d="M297.778 43.1386C297.845 45.8302 298.29 46.7274 298.973 46.9683C299.553 47.1761 300.202 47.209 300.748 47.209C301.123 47.209 301.329 47.2787 301.329 47.4865C301.329 47.7615 301.021 47.83 300.542 47.83C298.323 47.83 296.96 47.7272 296.31 47.7272C296.003 47.7272 294.398 47.83 292.623 47.83C292.179 47.83 291.872 47.7969 291.872 47.4865C291.872 47.2786 292.078 47.209 292.418 47.209C292.862 47.209 293.476 47.176 293.954 47.0379C294.842 46.7604 294.979 45.7605 295.013 42.762L295.32 22.3446C295.32 21.654 295.422 21.1724 295.764 21.1724C296.139 21.1724 296.447 21.621 297.026 22.242C297.438 22.6882 302.625 28.3111 307.608 33.3094C309.931 35.6564 314.539 40.623 315.118 41.1742H315.29L314.948 25.6891C314.915 23.5854 314.608 22.9291 313.787 22.5855C313.274 22.3776 312.457 22.3776 311.977 22.3776C311.568 22.3776 311.431 22.2749 311.431 22.0672C311.431 21.7933 311.808 21.7567 312.319 21.7567C314.094 21.7567 315.733 21.8619 316.45 21.8619C316.826 21.8619 318.123 21.7567 319.794 21.7567C320.238 21.7567 320.581 21.7934 320.581 22.0672C320.581 22.275 320.376 22.3776 319.967 22.3776C319.624 22.3776 319.353 22.3776 318.941 22.4828C317.987 22.7578 317.712 23.4827 317.679 25.414L317.303 47.1759C317.303 47.9326 317.166 48.243 316.859 48.243C316.484 48.243 316.075 47.8641 315.699 47.4864C313.549 45.4169 309.18 40.8966 305.63 37.3468C301.908 33.6198 298.12 29.3109 297.505 28.6544H297.401L297.778 43.1386Z" fill="#8F7242"/>
<path d="M329.013 38.8297C328.843 38.8297 328.774 38.8994 328.705 39.1047L326.863 44.037C326.523 44.8988 326.35 45.7275 326.35 46.1394C326.35 46.7604 326.657 47.2091 327.716 47.2091H328.229C328.638 47.2091 328.742 47.2788 328.742 47.4865C328.742 47.7615 328.536 47.83 328.16 47.83C327.068 47.83 325.601 47.7273 324.542 47.7273C324.166 47.7273 322.288 47.83 320.513 47.83C320.069 47.83 319.866 47.7615 319.866 47.4865C319.866 47.2787 320.002 47.2091 320.275 47.2091C320.581 47.2091 321.059 47.1761 321.333 47.1406C322.901 46.9328 323.552 45.7605 324.235 44.037L332.803 22.3777C333.212 21.3777 333.418 21 333.758 21C334.065 21 334.271 21.3105 334.611 22.1026C335.431 23.9985 340.893 38.0705 343.078 43.3132C344.374 46.4169 345.363 46.8997 346.082 47.0708C346.593 47.1759 347.105 47.209 347.514 47.209C347.788 47.209 347.958 47.2432 347.958 47.4864C347.958 47.7614 347.652 47.8299 346.39 47.8299C345.16 47.8299 342.667 47.8299 339.938 47.7614C339.324 47.7272 338.912 47.7272 338.912 47.4864C338.912 47.2785 339.049 47.209 339.389 47.1759C339.631 47.1062 339.869 46.7971 339.696 46.3815L336.967 39.0705C336.899 38.8993 336.797 38.8297 336.624 38.8297H329.013ZM335.977 37.1037C336.148 37.1037 336.183 37.001 336.148 36.8984L333.076 28.3797C333.042 28.2415 333.007 28.0692 332.905 28.0692C332.803 28.0692 332.734 28.2415 332.699 28.3797L329.558 36.8629C329.526 37.001 329.558 37.1036 329.696 37.1036L335.977 37.1037Z" fill="#8F7242"/>
<path d="M79.9222 31.7583C79.9222 26.518 79.9222 25.5511 79.8544 24.4473C79.7854 23.2751 79.5119 22.7238 78.3855 22.483C78.1133 22.4133 77.5313 22.3779 77.0546 22.3779C76.6783 22.3779 76.4738 22.3082 76.4738 22.0674C76.4738 21.8267 76.7134 21.757 77.2239 21.757C79.034 21.757 81.1851 21.8621 82.141 21.8621C83.1985 21.8621 85.3485 21.757 87.3969 21.757C91.6655 21.757 97.3655 21.757 101.085 25.6894C102.793 27.4826 104.397 30.3454 104.397 34.4489C104.397 38.7945 102.587 42.1059 100.676 44.0702C99.1064 45.691 95.5566 48.1406 89.2408 48.1406C88.0115 48.1406 86.6128 48.0379 85.3158 47.9328C84.0175 47.8301 82.8233 47.7275 81.9691 47.7275C81.5928 47.7275 80.8427 47.7275 80.0248 47.7617C79.2383 47.7617 78.3515 47.8302 77.6678 47.8302C77.2238 47.8302 76.9854 47.7275 76.9854 47.4867C76.9854 47.3119 77.1221 47.2093 77.5312 47.2093C78.0442 47.2093 78.4543 47.1408 78.7617 47.0711C79.4428 46.933 79.6147 46.1763 79.7502 45.1753C79.922 43.7267 79.922 41.0021 79.922 37.83L79.9222 31.7583ZM84.1883 35.5537C84.1883 39.2099 84.2234 41.8636 84.2574 42.5188C84.2912 43.383 84.3602 44.7607 84.6324 45.1396C85.0764 45.7961 86.4074 46.5197 89.1043 46.5197C92.5864 46.5197 94.9071 45.8302 96.9566 44.0371C99.1393 42.1388 99.8217 39.0021 99.8217 35.4487C99.8217 31.0701 98.0129 28.2416 96.5464 26.8285C93.4055 23.7933 89.5143 23.3777 86.8513 23.3777C86.1689 23.3777 84.9057 23.4828 84.6323 23.6197C84.3249 23.7579 84.2233 23.9302 84.2233 24.3092C84.1882 25.4814 84.1882 28.4823 84.1882 31.207L84.1883 35.5537Z" fill="#8F7242"/>
<path d="M107.802 35.6906C107.728 31.6727 107.714 30.9307 107.647 30.0849C107.578 29.1852 107.36 28.7696 106.489 28.5996C106.277 28.5507 105.83 28.5312 105.463 28.5373C105.174 28.5434 105.014 28.4933 105.012 28.3087C105.008 28.1229 105.191 28.0666 105.585 28.0581C106.978 28.0336 108.634 28.0837 109.187 28.0728C110.08 28.0568 112.075 27.9383 112.891 27.9224C114.545 27.8931 116.308 28.019 117.746 28.97C118.492 29.4601 119.566 30.7889 119.599 32.5588C119.634 34.517 118.852 36.3299 116.237 38.5485C118.632 41.465 120.488 43.7863 122.068 45.395C123.567 46.9022 124.648 47.066 125.043 47.1406C125.334 47.1883 125.57 47.2091 125.78 47.2054C125.991 47.2017 126.097 47.2775 126.1 47.412C126.104 47.6234 125.92 47.6784 125.606 47.6846L123.11 47.731C121.637 47.7591 120.978 47.6393 120.288 47.2823C119.149 46.6944 118.126 45.4696 116.617 43.4612C115.539 42.0286 114.298 40.25 113.95 39.8613C113.815 39.7048 113.657 39.6791 113.473 39.6828L111.186 39.6743C111.055 39.6767 110.977 39.7293 110.98 39.8894L110.986 40.2598C111.031 42.7192 111.07 44.8083 111.222 45.9169C111.313 46.6821 111.483 47.259 112.273 47.3508C112.668 47.3972 113.248 47.4388 113.562 47.4327C113.773 47.4279 113.878 47.5049 113.882 47.6393C113.884 47.8239 113.703 47.9071 113.36 47.9131C111.837 47.9412 109.892 47.8996 109.497 47.907C108.997 47.9168 107.343 48.0255 106.293 48.0451C105.951 48.0512 105.767 47.9767 105.763 47.7921C105.761 47.6577 105.864 47.5757 106.178 47.5709C106.574 47.5635 106.887 47.5061 107.123 47.4474C107.647 47.3313 107.767 46.7494 107.859 45.9805C107.969 44.8669 107.931 42.7767 107.887 40.3429L107.802 35.6906ZM110.94 37.721C110.944 38.0131 111 38.1182 111.186 38.1928C111.741 38.3688 112.529 38.4323 113.187 38.4201C114.237 38.3993 114.577 38.2894 115.044 37.9372C115.822 37.3382 116.56 36.1085 116.522 33.9401C116.453 30.1838 113.964 29.1459 112.414 29.1764C111.756 29.1874 111.285 29.2241 111.023 29.3072C110.84 29.3647 110.789 29.4698 110.793 29.6825L110.94 37.721Z" fill="#8F7242"/>
</mask>
<g mask="url(#mask0_402_5283)">
<g opacity="0.4" filter="url(#filter0_f_402_5283)">
<ellipse cx="85.0456" cy="48.9046" rx="126.014" ry="73.4399" transform="rotate(31.083 85.0456 48.9046)" fill="#421408"/>
</g>
<g opacity="0.2" filter="url(#filter1_f_402_5283)">
<ellipse cx="227.643" cy="-4.08103" rx="152.161" ry="94.8334" transform="rotate(48.7311 227.643 -4.08103)" fill="black"/>
</g>
</g>
</g>
<defs>
<filter id="filter0_f_402_5283" x="-229.373" y="-241.585" width="628.838" height="580.98" filterUnits="userSpaceOnUse" color-interpolation-filters="sRGB">
<feFlood flood-opacity="0" result="BackgroundImageFix"/>
<feBlend mode="normal" in="SourceGraphic" in2="BackgroundImageFix" result="shape"/>
<feGaussianBlur stdDeviation="100" result="effect1_foregroundBlur_402_5283"/>
</filter>
<filter id="filter1_f_402_5283" x="-95.4669" y="-334.461" width="646.22" height="660.76" filterUnits="userSpaceOnUse" color-interpolation-filters="sRGB">
<feFlood flood-opacity="0" result="BackgroundImageFix"/>
<feBlend mode="normal" in="SourceGraphic" in2="BackgroundImageFix" result="shape"/>
<feGaussianBlur stdDeviation="100" result="effect1_foregroundBlur_402_5283"/>
</filter>
<clipPath id="clip0_402_5283">
<rect width="348" height="69" fill="white"/>
</clipPath>
</defs>
</svg>
