<svg width="380" height="149" viewBox="0 0 380 149" fill="none" xmlns="http://www.w3.org/2000/svg">
<g clip-path="url(#clip0_410_643)">
<g filter="url(#filter0_d_410_643)">
<path d="M116.24 89.8259C115.842 88.377 114.924 87.138 114.53 85.7292C114.118 84.3334 114.196 82.8445 114.442 81.4244C115.242 79.177 115.331 76.4404 112.464 75.4068C113.704 73.7725 114.541 71.1046 112.5 69.6889C111.156 68.6083 110.019 67.1403 109.341 65.647C108.263 63.3666 112.761 61.3753 113.878 59.2856C119.383 51.6276 96.0635 48.4112 93.6085 42.2317C92.8618 40.5513 93.0028 38.5208 92.7665 36.6862C91.1078 27.6743 85.4512 17.9031 77.2094 11.7019C79.4777 10.9052 81.8801 10.4463 84.3808 10.4524C81.7566 10.2425 79.1675 10.5882 76.6892 11.3362C73.2445 8.97304 69.3059 7.37354 64.8938 7C69.0959 7.54681 72.8148 9.19681 76.0505 11.5399C67.9817 14.3445 60.3057 18.4749 56.7185 27.2497C53.0884 38.7093 56.4271 49.8531 55.3643 61.4493C54.0483 75.8087 47.7058 90.5018 33.4712 103.074C55.9586 88.1306 58.5241 62.1243 58.5241 41.1996C58.5241 27.2497 63.4257 17.1882 76.5803 11.9335C84.3429 18.0102 88.5907 27.8967 90.3806 36.4585C90.5653 43.897 91.4851 45.5548 98.8995 49.1639C101.547 50.8209 112.572 54.6729 111.909 57.6456C109.898 62.4328 101.889 62.8059 111.394 71.3267C111.393 71.3249 111.392 71.3232 111.393 71.3232C111.395 71.3258 111.397 71.3293 111.4 71.3319C111.4 71.3319 110.599 71.7015 111.398 71.3302C112.351 73.1012 109.199 75.5318 108.077 76.8962L109.75 77.207C113.521 77.7591 111.469 80.595 111.393 82.824C110.923 85.6338 112.397 88.1328 113.447 90.6578C115.909 103.189 93.9585 101.616 85.6642 105.913C77.4038 109.346 74.2012 117.134 71.5392 124.354C68.6302 130.61 64.9502 136.636 60.3057 142C66.6701 135.333 71.5382 127.497 74.7758 119.233C77.8657 111.254 85.3958 105.999 94.712 104.909C103.609 103.258 118.816 100.817 116.239 89.8276L116.24 89.8259Z" fill="#8F7242"/>
</g>
<g filter="url(#filter1_d_410_643)">
<path d="M115.24 89.8259C114.842 88.377 113.924 87.138 113.53 85.7292C113.118 84.3334 113.196 82.8445 113.442 81.4244C114.242 79.177 114.331 76.4404 111.464 75.4068C112.704 73.7725 113.541 71.1046 111.5 69.6889C110.156 68.6083 109.019 67.1403 108.341 65.647C107.263 63.3666 111.761 61.3753 112.878 59.2856C118.383 51.6276 95.0635 48.4112 92.6085 42.2317C91.8618 40.5513 92.0028 38.5208 91.7665 36.6862C90.1078 27.6743 84.4512 17.9031 76.2094 11.7019C78.4777 10.9052 80.8801 10.4463 83.3808 10.4524C80.7566 10.2425 78.1675 10.5882 75.6892 11.3362C72.2445 8.97304 68.3059 7.37354 63.8938 7C68.0959 7.54681 71.8148 9.19681 75.0505 11.5399C66.9817 14.3445 59.3057 18.4749 55.7185 27.2497C52.0884 38.7093 55.4271 49.8531 54.3643 61.4493C53.0483 75.8087 46.7058 90.5018 32.4712 103.074C54.9586 88.1306 57.5241 62.1243 57.5241 41.1996C57.5241 27.2497 62.4257 17.1882 75.5803 11.9335C83.3429 18.0102 87.5907 27.8967 89.3806 36.4585C89.5653 43.897 90.4851 45.5548 97.8995 49.1639C100.547 50.8209 111.572 54.6729 110.909 57.6456C108.898 62.4328 100.889 62.8059 110.394 71.3267C110.393 71.3249 110.392 71.3232 110.393 71.3232C110.395 71.3258 110.397 71.3293 110.4 71.3319C110.4 71.3319 109.599 71.7015 110.398 71.3302C111.351 73.1012 108.199 75.5318 107.077 76.8962L108.75 77.207C112.521 77.7591 110.469 80.595 110.393 82.824C109.923 85.6338 111.397 88.1328 112.447 90.6578C114.909 103.189 92.9585 101.616 84.6642 105.913C76.4038 109.346 73.2012 117.134 70.5392 124.354C67.6302 130.61 63.9502 136.636 59.3057 142C65.6701 135.333 70.5382 127.497 73.7758 119.233C76.8657 111.254 84.3958 105.999 93.712 104.909C102.609 103.258 117.816 100.817 115.239 89.8276L115.24 89.8259Z" fill="black"/>
</g>
<path d="M211.741 66.5H207.382L188.14 33.9453V53.5156C188.14 55.5625 188.296 57.9219 188.608 60.5938C188.921 63.2656 189.241 65.2344 189.569 66.5H187.437V32.75H191.796L211.038 65.3047V45.7344C211.038 43.6875 210.882 41.3281 210.569 38.6562C210.257 35.9688 209.937 34 209.608 32.75H211.741V66.5ZM233.993 66.8281C229.493 66.8281 225.587 65.1016 222.274 61.6484C219.071 58.3359 217.469 54.3281 217.469 49.625C217.469 44.7969 219.173 40.6562 222.579 37.2031C225.766 34.0156 229.571 32.4219 233.993 32.4219C237.024 32.4219 239.79 33.1953 242.29 34.7422C243.54 35.5234 244.665 36.4375 245.665 37.4844C248.883 40.8438 250.493 44.8906 250.493 49.625C250.493 52.7812 249.751 55.6641 248.266 58.2734C247.516 59.5703 246.633 60.7266 245.618 61.7422C242.227 65.1328 238.352 66.8281 233.993 66.8281ZM237.157 65.0469C239.048 65.0469 240.704 64.6172 242.126 63.7578C244.11 62.5547 245.54 60.8672 246.415 58.6953C247.102 57.0078 247.446 55.1797 247.446 53.2109C247.446 49.6016 246.548 46.3359 244.751 43.4141C243.173 40.8203 241.298 38.7344 239.126 37.1562C236.376 35.1875 233.602 34.2031 230.805 34.2031C229.055 34.2031 227.407 34.6562 225.86 35.5625C223.876 36.7031 222.438 38.3672 221.548 40.5547C220.876 42.2109 220.54 44.0156 220.54 45.9688C220.54 49.5156 221.446 52.8047 223.258 55.8359C224.805 58.4297 226.673 60.5078 228.86 62.0703C231.594 64.0547 234.36 65.0469 237.157 65.0469ZM280.409 66.5H276.049L256.807 33.9453V53.5156C256.807 55.5625 256.963 57.9219 257.276 60.5938C257.588 63.2656 257.909 65.2344 258.237 66.5H256.104V32.75H260.463L279.705 65.3047V45.7344C279.705 43.6875 279.549 41.3281 279.237 38.6562C278.924 35.9688 278.604 34 278.276 32.75H280.409V66.5ZM287.473 50.5859V48.6406H301.699V50.5859H287.473ZM150.504 114.828C148.926 114.828 147.215 114.609 145.371 114.172C143.527 113.734 141.949 113.109 140.637 112.297L142.863 109.086C144.176 110.195 145.98 111.141 148.277 111.922C150.574 112.688 152.824 113.07 155.027 113.07C157.168 113.07 158.848 112.625 160.066 111.734C161.379 110.766 162.035 109.352 162.035 107.492C162.035 106.273 161.762 105.234 161.215 104.375C160.262 102.891 158.496 101.641 155.918 100.625C154.762 100.188 153.566 99.7656 152.332 99.3594C149.098 98.3125 146.715 97.2891 145.183 96.2891C143.012 94.8516 141.926 92.8359 141.926 90.2422C141.926 88.4766 142.473 86.8438 143.566 85.3438C144.129 84.5938 144.793 83.9219 145.558 83.3281C148.043 81.3906 151.16 80.4219 154.91 80.4219C158.051 80.4219 160.91 81.2578 163.488 82.9297L161.285 86.1406C160.019 85.0625 158.418 84.1406 156.48 83.375C154.543 82.5938 152.59 82.2031 150.621 82.2031C148.98 82.2031 147.66 82.6016 146.66 83.3984C145.535 84.3203 144.973 85.6406 144.973 87.3594C144.973 88.7188 145.254 89.8672 145.816 90.8047C146.832 92.4297 148.676 93.7656 151.348 94.8125C152.535 95.2656 153.762 95.6953 155.027 96.1016C158.215 97.1172 160.519 98.1016 161.941 99.0547C164.035 100.445 165.082 102.367 165.082 104.82C165.082 107.773 163.707 110.18 160.957 112.039C158.207 113.898 154.723 114.828 150.504 114.828ZM182.599 114.5C178.474 114.5 175.357 113.727 173.248 112.18C171.138 110.617 170.083 108.195 170.083 104.914V80.75H174.419V104.914C174.419 107.992 175.083 110.242 176.412 111.664C177.74 113.086 179.802 113.797 182.599 113.797C186.38 113.797 189.037 113.023 190.568 111.477C191.927 110.102 192.607 107.914 192.607 104.914V93.7344C192.607 91.6875 192.443 89.3281 192.115 86.6562C191.802 83.9688 191.49 82 191.177 80.75H193.287V104.914C193.287 107.398 192.88 109.336 192.068 110.727C191.646 111.43 191.13 112.031 190.521 112.531C188.88 113.844 186.24 114.5 182.599 114.5ZM223.179 114.5H218.819C218.819 109.797 218.327 106.336 217.343 104.117C216.999 103.352 216.593 102.688 216.124 102.125C215.124 100.984 213.741 100.414 211.976 100.414C210.819 100.414 209.765 100.875 208.812 101.797C206.874 103.672 205.905 105.961 205.905 108.664V114.5H201.546V80.75H205.905C209.499 80.75 212.585 81.0156 215.163 81.5469C220.507 82.6406 223.179 84.875 223.179 88.25C223.179 89.5938 222.812 90.7578 222.077 91.7422C221.702 92.2422 221.273 92.7266 220.788 93.1953C219.726 94.1797 217.96 95.3672 215.491 96.7578C213.226 98.0391 211.46 99.1641 210.194 100.133C211.163 99.7891 212.233 99.6172 213.405 99.6172C215.249 99.6172 216.913 100.172 218.398 101.281C219.116 101.844 219.765 102.531 220.343 103.344C222.233 106 223.179 109.719 223.179 114.5ZM205.905 104.609C206.28 103.625 206.812 102.703 207.499 101.844C208.53 100.562 210.179 99.1094 212.444 97.4844C213.554 96.7031 214.593 95.8906 215.562 95.0469C217.733 93.1406 218.819 90.875 218.819 88.25C218.819 85.9375 217.952 84.2578 216.218 83.2109C214.265 82.0234 210.827 81.4297 205.905 81.4297V104.609ZM243.087 114.828C238.758 114.828 234.907 113.172 231.532 109.859C230.485 108.812 229.579 107.617 228.813 106.273C227.329 103.664 226.587 100.781 226.587 97.625C226.587 93.0469 228.212 89 231.462 85.4844C232.43 84.4219 233.54 83.5078 234.79 82.7422C237.29 81.1953 240.055 80.4219 243.087 80.4219C246.243 80.4219 249.11 81.2578 251.688 82.9297L249.462 86.1406C246.368 83.5312 243.133 82.2266 239.758 82.2266C238.04 82.2266 236.438 82.6641 234.954 83.5391C233.235 84.5391 231.93 85.9375 231.04 87.7344C230.102 89.6094 229.633 91.7031 229.633 94.0156C229.633 97.2656 230.571 100.516 232.446 103.766C234.133 106.719 236.235 109 238.751 110.609C241.266 112.219 243.79 113.023 246.321 113.023C248.055 113.023 249.696 112.586 251.243 111.711C251.805 111.398 252.329 111.023 252.813 110.586V95.9844C250.766 95.9844 248.805 96.1406 246.93 96.4531C245.071 96.7656 243.704 97.0859 242.829 97.4141V95.2812H257.173V106.625C255.766 109.062 253.915 111 251.618 112.438C249.04 114.031 246.196 114.828 243.087 114.828ZM263.158 80.75H267.518V114.5H263.158V80.75ZM289.699 114.828C286.652 114.828 283.887 114.055 281.402 112.508C275.934 109.117 273.199 104.156 273.199 97.625C273.199 94.4531 273.941 91.5703 275.426 88.9766C276.91 86.3672 278.894 84.2891 281.379 82.7422C283.879 81.1953 286.652 80.4219 289.699 80.4219C292.84 80.4219 295.699 81.2578 298.277 82.9297L296.074 86.1406C292.996 83.5312 289.879 82.2266 286.723 82.2266C284.785 82.2266 283.066 82.6641 281.566 83.5391C279.582 84.6953 278.144 86.3672 277.254 88.5547C276.582 90.2266 276.246 92.0469 276.246 94.0156C276.246 94.6094 276.324 95.7344 276.48 97.3906C276.652 99.0312 277.496 101.164 279.012 103.789C280.684 106.664 282.754 108.922 285.223 110.562C287.691 112.203 290.144 113.023 292.582 113.023C293.519 113.023 294.434 112.922 295.324 112.719C296.262 112.5 297.254 112.078 298.301 111.453L298.676 112.062C295.941 113.906 292.949 114.828 289.699 114.828ZM326.81 114.5H322.474L317.623 101.68C315.826 101.852 314.162 102.297 312.63 103.016C310.583 103.969 308.841 105.25 307.404 106.859C306.06 108.359 305.029 110.031 304.31 111.875C304.091 112.938 303.951 113.812 303.888 114.5H301.755L314.037 80.75L326.81 114.5ZM304.779 109.836C305.388 108.445 306.208 107.141 307.24 105.922C308.802 104.047 310.654 102.539 312.794 101.398C314.154 100.68 315.537 100.188 316.943 99.9219L312.255 87.5469L307.216 101.516C306.31 104 305.498 106.773 304.779 109.836ZM349.413 114.5H330.733V80.75H335.093V113.797C338.03 113.797 340.835 113.641 343.507 113.328C346.179 113.016 348.148 112.695 349.413 112.367V114.5Z" fill="black"/>
</g>
<defs>
<filter id="filter0_d_410_643" x="31.4712" y="7" width="91.0577" height="143" filterUnits="userSpaceOnUse" color-interpolation-filters="sRGB">
<feFlood flood-opacity="0" result="BackgroundImageFix"/>
<feColorMatrix in="SourceAlpha" type="matrix" values="0 0 0 0 0 0 0 0 0 0 0 0 0 0 0 0 0 0 127 0" result="hardAlpha"/>
<feOffset dx="2" dy="4"/>
<feGaussianBlur stdDeviation="2"/>
<feComposite in2="hardAlpha" operator="out"/>
<feColorMatrix type="matrix" values="0 0 0 0 0 0 0 0 0 0 0 0 0 0 0 0 0 0 0.25 0"/>
<feBlend mode="normal" in2="BackgroundImageFix" result="effect1_dropShadow_410_643"/>
<feBlend mode="normal" in="SourceGraphic" in2="effect1_dropShadow_410_643" result="shape"/>
</filter>
<filter id="filter1_d_410_643" x="30.4712" y="7" width="91.0577" height="143" filterUnits="userSpaceOnUse" color-interpolation-filters="sRGB">
<feFlood flood-opacity="0" result="BackgroundImageFix"/>
<feColorMatrix in="SourceAlpha" type="matrix" values="0 0 0 0 0 0 0 0 0 0 0 0 0 0 0 0 0 0 127 0" result="hardAlpha"/>
<feOffset dx="2" dy="4"/>
<feGaussianBlur stdDeviation="2"/>
<feComposite in2="hardAlpha" operator="out"/>
<feColorMatrix type="matrix" values="0 0 0 0 0 0 0 0 0 0 0 0 0 0 0 0 0 0 0.25 0"/>
<feBlend mode="normal" in2="BackgroundImageFix" result="effect1_dropShadow_410_643"/>
<feBlend mode="normal" in="SourceGraphic" in2="effect1_dropShadow_410_643" result="shape"/>
</filter>
<clipPath id="clip0_410_643">
<rect width="380" height="149" fill="white"/>
</clipPath>
</defs>
</svg>
