<svg width="167" height="166" viewBox="0 0 167 166" fill="none" xmlns="http://www.w3.org/2000/svg">
<path d="M79.7117 0C79.6938 0 79.3735 0.00447862 79.222 0.00895725V17.2054C79.2332 17.2054 79.2376 17.4244 79.2442 17.4244V67.1657H97.6326V19.6584C127.045 27.1667 148.707 52.7162 148.707 83.0836C148.707 110.449 131.109 133.902 106.102 143.767V162.289C141.408 151.639 167 120.207 167 83.0838C167 37.1935 127.918 0 79.7117 0Z" fill="white"/>
<path d="M72.741 18.5652V1.08191C31.8386 5.56799 0 40.6631 0 83.2937C0 128.685 36.0979 165.528 80.7969 165.982V165.996C80.9416 165.996 81.0839 166 81.2309 166C86.9345 166 92.4979 165.404 97.8724 164.277V146.461C92.5648 147.898 86.9857 148.664 81.2309 148.664C81.2153 148.664 81.1819 148.652 81.1819 148.652C48.7783 148.433 22.0512 124.006 17.7252 92.3311H98.0259V74.9067H17.6339C21.3279 45.7229 44.0202 22.5791 72.741 18.5652Z" fill="white"/>
</svg>
